<svg width="460" height="264" viewBox="0 0 460 264" fill="none" xmlns="http://www.w3.org/2000/svg">
<g clip-path="url(#clip0_38_65)">
<path d="M460 0.713867H0V263.571H460V0.713867Z" fill="white"/>
<path d="M242.356 45.7073C240.882 46.4954 239.203 48.6542 238.655 50.4704C238.312 51.6011 238.381 51.978 239.1 53.5886C240.025 55.576 241.465 57.2209 242.733 57.7006C244.104 58.2146 246.536 58.0432 247.976 57.3236C249.483 56.5355 251.197 54.3767 251.677 52.6634C252.121 51.0186 251.608 49.4766 249.997 47.6605C247.667 44.9877 244.994 44.3023 242.356 45.7073Z" fill="#EC1C24"/>
<path d="M259.936 51.5658V55.6093H322.438H384.94L385.18 52.6966C385.454 49.3385 385.214 47.7623 384.392 47.6937C384.084 47.6595 355.951 47.6252 321.89 47.5909L259.936 47.5566V51.5658Z" fill="#EC1C24"/>
<path d="M200.724 65.0323C195.687 66.1973 191.575 68.3906 188.902 71.3714C186.88 73.5991 185.818 75.6205 184.892 78.9443C183.967 82.3023 184.036 84.187 185.098 87.2026C186.503 91.0745 188.08 93.0965 191.575 95.3578C194.178 97.0374 196.886 98.0652 204.047 100.018C216.726 103.514 220.872 106.358 221.729 112.183C223.031 121.024 208.914 126.952 198.633 121.88C195.549 120.373 193.219 118.111 192.089 115.644C191.643 114.684 191.129 113.862 190.924 113.862C190.718 113.896 189.073 114.239 187.291 114.65L184.036 115.438L184.139 116.569C184.173 117.22 184.858 118.933 185.612 120.407C187.462 123.936 191.369 127.706 194.967 129.453C207.235 135.347 223.682 130.824 228.788 120.133C230.741 116.021 230.741 110.333 228.822 106.152C226.904 102.074 221.763 97.688 216.247 95.3578C214.876 94.8097 210.763 93.4737 207.131 92.4453C203.465 91.3833 199.456 90.0467 198.223 89.4645C193.151 87.1684 191.643 83.5016 193.904 78.9443C195.823 75.1407 200.244 72.9137 205.966 72.9479C212.82 72.982 217.103 75.5863 219.741 81.2404C220.496 82.8168 220.701 83.0567 221.352 82.851C221.729 82.7478 223.237 82.3371 224.642 81.9599C226.047 81.6176 227.348 81.1372 227.52 80.9663C227.931 80.555 226.629 76.6141 225.395 74.4895C223.168 70.686 218.851 67.4995 213.505 65.6834C210.113 64.5525 204.185 64.2441 200.724 65.0323Z" fill="black"/>
<path d="M287.352 65.1698C283.651 65.9921 281.595 66.712 278.614 68.2195C269.293 72.8799 262.817 81.2066 260.384 91.6578C259.596 95.1189 259.596 101.561 260.419 105.125C262.851 115.85 270.013 124.69 279.95 129.282C284.576 131.441 286.701 131.853 293.349 131.853C300.168 131.853 302.943 131.27 308.151 128.769C316.341 124.794 322.543 117.872 325.422 109.442C326.073 107.592 327.444 101.012 327.444 99.7787C327.444 99.1275 327.101 99.1275 313.223 99.1275H299.003V103.24V107.352H308.255C313.36 107.352 317.506 107.455 317.506 107.557C317.506 107.695 316.787 109.031 315.896 110.573C312.572 116.227 307.261 120.544 300.887 122.669C298.454 123.491 297.632 123.594 293.691 123.594C288.757 123.594 286.187 123.046 282.829 121.401C276.592 118.317 272.412 113.725 269.636 106.94C268.848 105.056 268.745 104.165 268.574 99.6421C268.403 93.4051 268.677 91.8976 270.973 87.1347C272.48 84.0165 273.097 83.1938 275.838 80.4528C278.477 77.8144 279.47 77.06 282.212 75.724C286.564 73.5653 289.1 72.9483 293.52 72.9483C296.261 72.9483 297.769 73.1198 299.859 73.702C305.445 75.3127 310.242 78.3966 313.223 82.2685C313.943 83.2628 314.731 84.0507 314.971 84.0507C315.45 84.0507 321.413 80.0415 321.55 79.6301C321.687 79.2187 318.706 75.724 316.615 73.7703C312.88 70.3098 306.712 66.9177 301.573 65.5467C297.632 64.4845 291.258 64.3131 287.352 65.1698Z" fill="black"/>
<path d="M63.5889 98.2706V130.344L75.6852 130.241C86.9926 130.105 87.9179 130.036 90.3164 129.316C99.6032 126.541 107.621 119.413 111.15 110.812C113.481 105.09 114.303 97.0371 113.001 92.2741C112.624 90.8692 112.213 89.1218 112.076 88.4364C111.973 87.7168 111.185 85.798 110.363 84.1532C106.251 75.9632 98.5748 69.8294 89.4602 67.3625C86.1364 66.5056 85.6566 66.4714 74.8282 66.3002L63.5889 66.1631V98.2706ZM85.1769 74.9354C89.0146 75.5518 91.5157 76.5461 94.5997 78.6016C99.3285 81.7888 102.927 86.6201 104.195 91.5546C104.572 93.0279 104.743 95.2556 104.777 98.7503C104.777 103.034 104.674 104.062 104.057 105.775C102.721 109.476 100.973 112.183 97.8894 115.233C95.525 117.597 94.3598 118.453 91.9271 119.618C87.747 121.675 85.5193 122.086 78.0837 122.086H71.8126V98.2706V74.4557H77.0553C79.8994 74.4557 83.5663 74.6614 85.1769 74.9354Z" fill="black"/>
<path d="M124.205 66.4723C124.205 66.6438 124.17 68.2886 124.205 70.1733C124.205 72.058 124.239 86.3469 124.239 101.972V130.311L148.843 130.243L173.411 130.14V126.199V122.258L153.126 122.155L132.806 122.087V112.15V102.212H150.967H169.162L169.06 98.2031L168.957 94.1938L168.1 94.1597C167.621 94.1255 159.5 94.0913 150.042 94.0572L132.806 93.9888V84.2572V74.5249L139.419 74.285C143.017 74.1825 152.098 74.1142 159.568 74.1825L173.137 74.285L173.343 70.5163C173.446 68.4259 173.446 66.6438 173.343 66.4723C173.137 66.1642 124.239 66.1642 124.205 66.4723Z" fill="black"/>
<path d="M240.746 139.871V213.51L243.932 213.75C245.645 213.887 247.564 213.921 248.113 213.852L249.141 213.75L249.243 139.974L249.312 66.2324H245.029H240.746V139.871Z" fill="#EC1C24"/>
<path d="M335.661 87.9231C335.661 99.8818 335.764 114.274 335.901 119.962L336.107 130.311H340.184H344.228V106.119C344.228 92.0006 344.365 82.0292 344.537 82.1323C344.708 82.2348 348.031 87.1693 351.904 93.0291C355.81 98.9223 362.937 109.717 367.769 117.015L376.542 130.311H380.756H385.005V98.2717V66.2324H380.722H376.438L376.37 90.459L376.267 114.719L369.894 105.125C366.399 99.8476 359.408 89.2939 354.371 81.6526C349.3 74.0107 344.879 67.432 344.468 66.9865C343.817 66.301 343.474 66.2324 339.705 66.2324H335.661V87.9231Z" fill="black"/>
<path d="M267.576 149.397L263.704 149.534V181.505V213.51L266.548 213.749C268.091 213.887 269.975 213.921 270.729 213.852L272.099 213.749L272.271 189.969C272.442 168.038 272.476 166.256 272.99 166.839C273.539 167.456 275.664 170.882 283.407 183.595C289.473 193.532 293.276 199.529 293.55 199.529C293.722 199.529 294.03 199.186 294.236 198.741C294.441 198.33 295.915 195.965 297.457 193.532C298.999 191.065 302.528 185.377 305.338 180.853C308.148 176.33 311.438 171.088 312.671 169.203L314.932 165.777L315.036 189.66L315.104 213.51L317.606 213.749C318.942 213.887 320.861 213.921 321.786 213.852L323.499 213.749V181.71V149.671L319.353 149.568L315.206 149.466L313.665 151.796C312.808 153.064 309.073 159.06 305.338 165.091C296.908 178.695 293.448 184.177 293.345 184.041C293.276 183.972 291.083 180.374 288.41 175.988C280.221 162.418 271.723 148.986 271.483 149.226C271.449 149.26 269.666 149.363 267.576 149.397Z" fill="black"/>
<path d="M184.106 149.739C183.969 149.842 183.867 151.624 183.867 153.68V157.381H193.461H203.056L203.09 180.236C203.09 200.077 203.261 213.235 203.501 213.44C203.536 213.474 205.215 213.578 207.202 213.646L210.834 213.749L211.074 209.98C211.177 207.889 211.28 195.211 211.28 181.779V157.381H220.703H230.126V153.44V149.499H207.237C194.626 149.499 184.209 149.602 184.106 149.739Z" fill="black"/>
<path d="M335.941 151.041C335.77 152.515 335.975 213.303 336.147 213.475C336.318 213.68 381.858 213.852 383.401 213.68L385.011 213.509V209.603V205.696H365.411C354.617 205.696 345.433 205.593 345.022 205.49L344.234 205.285V195.382V185.479H362.361H380.522L380.727 184.006C380.831 183.217 380.899 181.47 380.831 180.167L380.727 177.769L362.464 177.666L344.234 177.598L344.303 167.729L344.405 157.894L364.725 157.792L385.011 157.723V153.611V149.499H360.545H336.113L335.941 151.041Z" fill="black"/>
</g>
<defs>
<clipPath id="clip0_38_65">
<rect width="460" height="262.857" fill="white" transform="translate(0 0.713867)"/>
</clipPath>
</defs>
</svg>
