<svg width="460" height="264" viewBox="0 0 460 264" fill="none" xmlns="http://www.w3.org/2000/svg">
<g clip-path="url(#clip0_38_88)">
<path d="M460 0.428711H0V263.286H460V0.428711Z" fill="white"/>
<path d="M50.8263 77.4571C50.6098 77.9617 50.3933 87.0559 50.1767 97.6655C50.0324 108.347 49.7437 117.152 49.5272 117.442C49.3107 117.658 47.8671 117.225 46.2793 116.431C42.0932 114.338 39.8558 113.977 37.1853 115.132C33.4323 116.648 31.1949 119.607 29.3183 125.236C27.1531 131.876 27.0088 145.3 29.0296 152.013C32.2053 162.839 39.7115 166.881 46.2071 161.324C48.4446 159.447 48.5167 159.447 49.1663 160.891C49.8159 162.406 51.7646 163.056 54.435 162.623C55.8786 162.406 55.9507 161.973 56.3115 144.218C56.4559 134.186 56.4559 114.988 56.2394 101.491L55.8063 76.9517L53.4246 76.7349C51.9811 76.5909 50.9707 76.8794 50.8263 77.4571ZM47.5784 125.381L50.0324 127.907L50.2489 137.795C50.5376 149.487 49.8159 152.59 46.135 155.045C43.1036 157.138 42.5263 157.138 39.4949 155.045C36.0305 152.735 34.3705 147.538 34.3705 138.661C34.3705 128.34 37.1853 122.782 42.454 122.782C44.475 122.782 45.6298 123.36 47.5784 125.381Z" fill="black"/>
<path d="M301.345 77.0243C301.056 77.3128 300.839 85.9016 300.839 96.0781V114.627L298.024 115.132C295.137 115.565 294.344 116.576 294.344 119.535C294.344 121.195 295.931 122.061 299.179 122.061H300.839L300.983 142.414L301.2 162.839H304.448H307.696L307.912 142.414L308.057 122.061H310.294C313.253 122.061 315.057 120.979 316.356 118.453C318.089 115.132 317.8 114.844 312.748 114.844H308.057L307.912 95.8619L307.696 76.952L304.809 76.7351C303.149 76.5912 301.633 76.7351 301.345 77.0243Z" fill="#8F0D3B"/>
<path d="M146.749 93.3347C147.037 94.2731 147.615 96.3661 148.048 98.0261C148.986 101.635 149.78 101.996 150.429 99.109C150.646 98.0261 151.151 96.2222 151.512 95.067C152.523 91.8916 152.378 91.7471 149.202 91.7471C146.46 91.7471 146.243 91.8916 146.749 93.3347Z" fill="black"/>
<path d="M181.39 114.771C178.069 116.359 175.904 119.318 173.667 125.381C172.368 128.917 172.079 131.155 172.079 138.661C172.079 154.323 175.76 162.118 184.06 163.922C187.452 164.716 188.246 164.644 191.422 163.272L194.958 161.685L194.525 168.469C194.236 172.222 193.659 176.192 193.154 177.274C192.216 179.44 189.184 181.244 186.586 181.244C184.277 181.244 181.173 178.79 180.884 176.697C180.524 174.098 179.368 174.893 177.997 178.573C176.987 181.244 176.842 182.399 177.492 183.481C179.441 187.235 189.906 188.317 195.102 185.358C198.639 183.409 200.444 179.945 201.31 173.449C201.959 167.964 202.176 117.731 201.526 115.998C201.021 114.627 199.144 114.555 195.392 115.638C193.009 116.359 192.432 116.287 190.7 114.915C188.318 113.039 185.215 112.967 181.39 114.771ZM191.71 124.515L194.381 126.969V138.877C194.381 149.92 194.236 151.003 192.865 152.879C191.999 153.962 190.123 155.333 188.679 155.911C186.225 156.849 185.864 156.777 184.06 155.477C180.595 153.024 179.225 149.198 179.008 141.26C178.647 131.948 179.225 128.34 181.534 125.597C185.07 121.411 187.957 121.123 191.71 124.515Z" fill="black"/>
<path d="M228.885 114.121C227.586 114.411 225.997 115.06 225.42 115.565C224.554 116.287 223.904 116.287 222.677 115.71C221.811 115.277 219.791 114.771 218.203 114.699L215.315 114.483L215.099 138.228C215.027 151.364 215.172 162.262 215.46 162.479C215.821 162.767 217.408 162.839 219.069 162.695L222.028 162.334L222.317 145.301C222.533 129.567 222.677 127.979 224.049 125.669C225.925 122.422 229.967 120.834 232.854 122.277C236.751 124.082 237.329 127.041 237.834 145.879L238.267 163.056L241.227 162.912L244.186 162.767L244.402 149.776C244.835 123.143 242.453 115.204 233.72 113.905C232.349 113.688 230.112 113.833 228.885 114.121Z" fill="black"/>
<path d="M336.997 114.915C330.43 118.235 326.965 128.051 327.759 141.115C327.976 145.156 328.77 150.208 329.419 152.374C332.739 163.561 346.236 167.674 353.887 159.808C358 155.55 359.66 149.414 359.66 138.66C359.588 121.411 355.186 114.266 344.215 113.544C341.112 113.4 339.452 113.688 336.997 114.915ZM347.608 123.937C350.927 126.246 351.721 128.989 351.721 138.66C351.721 146.6 351.504 148.115 350.061 151.002C346.669 158.003 339.452 157.643 336.276 150.281C333.317 143.28 334.616 129.061 338.658 124.731C340.751 122.421 345.009 122.06 347.608 123.937Z" fill="#8F0D3B"/>
<path d="M82.3695 114.771C76.0899 116.36 71.9762 122.639 70.6047 132.887C68.8725 145.157 72.4092 157.932 78.6159 162.335C79.4821 162.912 81.7196 163.706 83.5241 164.067C86.4832 164.572 87.3494 164.428 91.1746 162.479C93.5561 161.324 96.1544 159.448 96.876 158.365L98.2474 156.489L96.299 154.757C93.9169 152.735 92.0407 152.664 89.5147 154.396C86.3387 156.56 84.9672 156.85 83.0911 155.55C80.2043 153.674 78.3997 148.549 77.9667 141.188C77.5336 133.248 78.9051 127.691 81.9365 124.804C84.8956 122.061 86.5555 121.773 89.4424 123.721C93.4838 126.464 93.123 128.196 87.2048 133.898C84.4625 136.568 82.1527 139.094 82.1527 139.383C82.1527 140.682 85.9779 144.435 87.2048 144.435C87.9986 144.435 90.9577 141.693 94.3499 137.867C101.207 130.145 101.567 128.485 98.0312 122.278C94.4945 116.143 88.4317 113.256 82.3695 114.771Z" fill="black"/>
<path d="M120.042 117.153C116.721 120.979 113.906 126.752 113.906 129.64C113.906 132.382 115.855 136.64 119.247 141.332C124.3 148.405 124.155 150.931 118.309 156.2C116.649 157.643 115.35 159.087 115.35 159.376C115.35 160.097 119.609 164.645 120.258 164.645C120.546 164.645 122.423 162.912 124.444 160.819C132.96 151.941 133.105 148.621 125.238 136.93C123.361 134.114 121.845 131.3 121.845 130.578C121.845 128.485 123.578 125.598 126.464 122.855C127.908 121.484 129.063 119.752 129.063 119.102C129.063 117.803 124.877 114.122 123.434 114.122C123.001 114.122 121.485 115.494 120.042 117.153Z" fill="black"/>
<path d="M270.812 116.432C267.781 119.102 264.028 126.392 264.028 129.64C264.1 132.454 265.904 136.496 270.018 142.487C271.895 145.229 273.41 147.972 273.41 148.621C273.41 150.498 270.884 154.179 268.07 156.416C266.626 157.571 265.471 158.943 265.471 159.52C265.471 160.53 269.585 164.645 270.596 164.645C271.895 164.645 277.813 157.932 279.545 154.612C282.432 148.766 282.144 147.178 275.72 137.434C271.029 130.289 271.101 128.99 276.442 123.144L280.051 119.174L277.525 116.648C276.153 115.277 274.637 114.122 274.204 114.122C273.771 114.122 272.256 115.205 270.812 116.432Z" fill="#8F0D3B"/>
<path d="M146.166 115.348C145.445 115.998 145.517 162.334 146.239 162.695C146.527 162.839 148.115 162.839 149.847 162.622L152.878 162.334V138.589V114.843H149.775C148.043 114.843 146.383 115.06 146.166 115.348Z" fill="black"/>
<path d="M373.377 116.431C373.161 117.369 373.089 128.123 373.161 140.465L373.377 162.839H376.626H379.873L380.234 145.517C380.451 134.33 380.884 127.69 381.461 126.752C381.894 125.958 383.554 124.514 385.142 123.504C388.317 121.555 390.338 118.741 390.338 116.359C390.338 113.977 387.957 114.482 384.131 117.73C382.327 119.39 380.451 120.545 379.945 120.401C379.223 120.185 379.223 119.39 379.729 115.926C379.801 115.493 378.502 115.132 376.842 114.988C374.171 114.771 373.738 114.988 373.377 116.431Z" fill="#8F0D3B"/>
<path d="M400.441 115.998C400.441 117.37 403.761 130.65 408.092 146.312C413.505 165.871 413.288 163.417 410.618 173.088C409.391 177.78 408.236 182.543 408.164 183.77C408.019 185.791 408.164 185.935 410.545 185.935C412.928 185.935 413.072 185.791 414.371 181.605C418.63 167.892 432.198 119.463 432.414 117.514C432.559 115.277 432.487 115.205 429.455 114.988C427.435 114.844 426.28 115.06 426.135 115.71C425.919 116.215 424.115 123 422.093 130.722C418.052 146.312 416.32 151.941 415.814 151.436C415.67 151.219 414.876 148.332 414.082 145.085C413.288 141.765 411.412 134.475 409.824 128.918C408.308 123.36 406.865 117.947 406.649 116.792C406.215 115.06 405.854 114.844 403.328 114.844C401.163 114.844 400.441 115.132 400.441 115.998Z" fill="#8F0D3B"/>
</g>
<defs>
<clipPath id="clip0_38_88">
<rect width="460" height="262.857" fill="white" transform="translate(0 0.428711)"/>
</clipPath>
</defs>
</svg>
