<svg width="460" height="263" viewBox="0 0 460 263" fill="none" xmlns="http://www.w3.org/2000/svg">
<g clip-path="url(#clip0_38_37)">
<path d="M460 0H0V262.857H460V0Z" fill="white"/>
<path d="M372.602 146.457C372.602 141.989 372.602 137.52 372.602 133.052C372.602 126.283 373.653 125.166 380.356 125.166C384.102 125.166 387.782 125.1 391.528 125.166C395.799 125.297 397.311 126.677 397.311 130.949C397.442 143.5 397.771 156.117 393.368 168.275C391.396 173.597 393.105 175.437 398.822 175.635C402.568 175.766 403.948 177.146 403.948 180.892C403.948 185.952 403.816 190.946 403.948 196.006C404.013 199.292 402.371 200.935 399.348 201.132C392.053 201.723 385.088 200.935 379.371 195.743C377.333 193.903 375.625 194.232 373.259 195.349C358.539 202.249 343.425 203.892 328.311 196.729C318.322 191.997 313.065 183.192 310.371 172.809C307.348 161.177 306.888 149.48 311.093 137.915C313.656 130.883 317.665 124.772 323.579 120.172C326.208 118.135 326.536 116.032 325.222 113.403C324.631 112.155 323.842 110.906 323.053 109.723C310.502 91.126 320.753 66.0231 342.833 62.0148C353.808 60.0433 364.651 61.4233 375.165 65.0376C378.122 66.0231 379.568 67.9288 379.371 71.2146C379.108 75.1574 379.436 79.1003 379.108 83.0431C378.648 87.5774 376.939 88.6288 372.471 87.7088C367.871 86.7231 363.336 85.606 358.736 84.8174C356.831 84.4888 354.793 84.7517 352.888 85.146C347.433 86.2631 345.199 89.2203 345.199 94.8717C345.199 102.363 348.156 108.935 351.836 115.243C357.488 124.837 363.336 134.366 369.119 143.895C369.776 145.012 370.828 145.932 371.616 146.917C371.879 146.852 372.208 146.655 372.602 146.457ZM339.942 141.66C338.956 143.435 338.365 144.289 337.971 145.275C335.013 152.503 335.079 159.797 337.445 167.092C340.271 175.832 347.433 179.446 356.371 177.08C360.051 176.095 360.313 175.569 358.276 172.152C354.728 166.106 351.048 160.192 347.433 154.146C345.068 150.269 342.768 146.326 339.942 141.66Z" fill="#DA2626"/>
<path d="M271.532 159.272C271.401 158.681 271.335 158.09 271.204 157.498C271.532 156.447 272.189 155.33 272.189 154.278C272.255 140.412 272.255 126.612 272.189 112.747C272.189 111.827 271.532 110.907 271.204 109.987C271.138 108.804 271.006 107.621 270.809 105.387C269.692 107.95 268.969 109.592 268.246 111.301C265.289 118.398 262.266 125.364 259.572 132.527C258.126 136.272 255.564 136.732 252.081 136.732C248.861 136.732 247.415 135.09 246.364 132.461C242.684 123.327 238.938 114.324 234.469 105.19C234.404 106.241 234.338 107.292 234.338 108.344C234.338 124.312 234.338 140.347 234.338 156.315C234.338 161.77 233.549 162.558 228.029 162.558C224.875 162.558 221.655 162.558 218.501 162.558C214.164 162.492 213.112 161.441 213.112 157.038C213.112 128.912 213.112 100.787 213.112 72.5953C213.112 70.4924 213.178 68.4553 213.112 66.3524C213.046 64.1181 214.164 62.6724 216.332 62.6067C221.326 62.4095 226.386 62.3438 231.381 62.4752C234.272 62.541 235.652 64.841 236.835 67.141C241.698 76.9324 246.561 86.7239 251.489 96.5153C251.884 97.3696 252.409 98.0924 253.066 99.2096C253.724 98.3553 254.184 97.8953 254.446 97.3039C259.375 87.4467 264.435 77.5896 269.232 67.6667C271.138 63.7238 273.832 61.8181 278.235 62.1467C281.586 62.4095 285.004 62.3438 288.355 62.4095C291.575 62.4752 292.692 64.3152 292.692 67.3382C292.626 74.7639 292.692 82.2553 292.692 89.681C292.692 111.892 292.692 134.104 292.692 156.381C292.692 161.507 291.706 162.558 286.581 162.558C283.164 162.558 279.812 162.624 276.395 162.492C274.424 162.427 272.321 162.361 271.729 159.864C271.598 159.667 271.532 159.47 271.532 159.272Z" fill="black"/>
<path d="M59.9971 62.6712C60.1943 62.6055 60.3914 62.6055 60.6543 62.6055C60.8514 62.7369 60.9829 62.9998 61.18 62.9998C69.8543 62.9998 78.4629 62.9998 87.1371 62.9998C87.3343 62.9998 87.4657 62.7369 87.6628 62.6055C104.354 62.6712 115.723 71.3458 118.023 88.3001C120.257 104.926 120.52 121.946 117.563 138.572C114.803 153.949 104.289 162.097 87.9914 162.557C79.0543 162.82 70.0514 162.623 61.1143 162.623C58.8143 162.623 56.9743 162.032 56.7771 159.272C56.7771 159.074 56.7114 158.812 56.7114 158.614C56.6457 157.3 56.5143 155.986 56.5143 154.737C56.5143 125.823 56.5143 96.8429 56.5143 67.9287C56.5143 66.8772 56.7114 65.7601 56.8429 64.7083C57.8286 63.9855 58.88 63.3283 59.9971 62.6712ZM97.9143 125.692C97.9143 117.149 97.9143 108.672 97.9143 100.129C97.9143 99.9315 97.9143 99.6687 97.9143 99.4715C97.7829 98.2887 97.52 97.1058 97.4543 95.9229C96.8629 85.0801 92.5914 80.8737 82.34 80.9394C77.74 80.9394 77.6743 81.0058 77.6743 85.8029C77.6743 102.889 77.6743 119.974 77.6743 136.994C77.6743 145.077 76.82 144.025 84.9686 144.025C90.9486 144.091 94.4314 141.594 96.0743 135.811C96.9286 132.722 97.2571 129.437 97.7829 126.217C97.8486 126.086 97.9143 125.889 97.9143 125.692Z" fill="black"/>
<path d="M196.289 113.534C196.289 121.42 197.011 129.372 196.157 137.126C194.054 155.592 181.569 164.989 162.971 163.609C151.866 162.754 143.191 158.549 138.263 148.166C135.24 141.792 134.517 134.892 134.517 127.992C134.451 115.177 134.451 102.363 135.043 89.6144C135.897 71.8716 147.266 61.5544 165.074 61.423C173.683 61.3573 181.569 62.803 187.943 69.1773C193.003 74.2373 195.5 80.4802 196.091 87.3802C196.814 96.0544 195.96 104.794 196.289 113.534C196.617 113.534 196.026 113.534 196.289 113.534ZM175.194 95.3316C175.326 95.2659 174.997 95.3316 175.194 95.3316C175.194 92.703 175.26 89.8773 174.471 87.2487C173.354 82.3859 170.331 80.0201 165.731 79.9544C161.197 79.9544 158.306 82.1887 157.057 86.9202C156.597 88.6944 156.203 90.6002 156.137 92.3744C156.071 105.583 156.071 118.857 156.137 132.066C156.137 134.037 156.531 136.009 156.991 137.914C158.503 143.829 163.3 146.26 169.149 144.354C174.011 142.712 174.997 138.506 175.063 134.366C175.326 121.289 175.194 108.343 175.194 95.3316Z" fill="black"/>
<path d="M260.687 173.532C263.578 178.461 266.469 183.389 269.295 188.384C270.872 191.078 272.318 193.838 274.158 197.124C276.458 193.115 278.495 189.567 280.467 185.952C282.504 182.338 284.804 178.855 286.512 175.109C287.695 172.481 289.272 171.495 292.032 171.889C293.412 172.087 294.858 171.955 296.567 171.955C296.567 181.747 296.567 191.407 296.567 201.198C294.924 201.198 293.347 201.198 291.441 201.198C291.441 192.918 291.441 184.835 291.441 176.687C291.244 176.621 290.981 176.555 290.784 176.489C287.629 182.272 284.475 187.989 281.255 193.772C280.467 195.218 279.481 196.598 278.955 198.109C277.904 201.264 275.604 201.789 272.844 201.329C272.187 201.198 271.267 200.869 271.004 200.409C267.915 194.692 264.892 188.844 261.869 183.061C262.987 183.455 264.104 183.784 265.221 184.178C265.287 183.718 265.352 183.192 265.352 182.732C264.169 182.798 262.987 182.929 261.804 182.995C260.358 180.761 258.978 178.592 257.072 175.635C257.072 184.572 257.072 192.721 257.072 201.067C255.167 201.067 253.589 201.067 251.881 201.067C251.881 191.472 251.881 181.812 251.881 171.955C254.247 171.955 256.547 171.824 258.847 172.021C259.438 172.087 260.029 172.941 260.555 173.467C260.489 173.664 260.358 173.795 260.292 173.992C260.489 173.795 260.555 173.664 260.687 173.532ZM280.532 190.947C280.467 190.749 280.401 190.487 280.269 190.421C280.138 190.355 279.941 190.552 279.744 190.618C279.809 190.815 279.875 191.078 279.941 191.144C280.138 191.209 280.335 191.078 280.532 190.947ZM294.398 173.269C294.398 173.335 294.398 173.467 294.398 173.532C294.727 173.532 295.055 173.532 295.384 173.532C295.384 173.467 295.384 173.335 295.384 173.269C295.055 173.269 294.727 173.269 294.398 173.269Z" fill="black"/>
<path d="M113.95 201.92C113.621 201.92 113.293 201.92 112.964 201.92C99.2299 201.854 92.2642 191.143 98.3099 178.657C99.4928 176.16 102.319 173.86 104.881 172.809C110.599 170.509 116.644 170.706 122.559 172.48C127.619 173.992 130.247 177.606 130.904 182.732C131.101 184.374 131.299 186.017 131.233 187.66C130.773 198.043 126.041 201.92 113.95 201.92ZM125.844 186.74C125.779 182.6 125.713 178.329 121.901 175.832C117.17 172.743 111.847 172.809 106.853 175.174C102.516 177.212 101.99 181.614 101.99 185.82C101.99 188.054 102.253 190.42 102.713 192.589C103.436 196.203 105.933 198.372 109.416 198.897C112.307 199.357 115.33 199.292 118.156 198.897C122.099 198.372 124.53 195.743 125.319 191.8C125.713 190.289 125.713 188.514 125.844 186.74Z" fill="black"/>
<path d="M143.124 173.072C143.452 172.677 143.847 171.889 144.175 171.955C151.469 172.217 158.829 172.02 165.992 173.137C173.878 174.386 176.638 179.117 176.309 188.317C176.112 195.02 172.104 199.817 165.072 200.606C158.238 201.329 151.338 201.197 144.504 201.263C144.044 201.263 143.584 200.146 143.189 199.62C143.518 198.766 144.109 197.912 144.109 197.057C144.175 189.829 144.175 182.535 144.109 175.306C144.044 174.452 143.452 173.795 143.124 173.072ZM148.315 198.635C152.718 198.635 156.792 198.897 160.801 198.569C167.372 198.109 170.789 194.232 170.987 187.66C171.052 186.477 171.052 185.229 170.987 184.046C170.658 179.183 168.424 176.029 163.692 175.306C158.698 174.583 153.572 174.649 148.315 174.386C148.315 182.797 148.315 190.617 148.315 198.635Z" fill="black"/>
<path d="M212.19 195.349C213.767 196.532 215.213 198.503 216.922 198.766C220.667 199.292 224.544 199.292 228.224 198.832C232.102 198.306 233.284 196.4 233.35 192.457C233.35 185.689 233.35 178.92 233.35 172.02C235.19 172.02 236.767 172.02 238.673 172.02C238.673 179.512 238.804 186.937 238.607 194.297C238.542 197.386 236.373 199.555 233.416 200.475C226.384 202.643 219.222 202.709 212.124 200.606C208.05 199.357 206.604 196.992 206.604 192.72C206.604 185.952 206.604 179.183 206.604 172.086C208.576 172.677 210.941 170.115 211.927 173.663C211.664 174.189 211.139 174.78 211.139 175.306C211.073 181.417 211.073 187.529 211.139 193.706C211.139 194.232 211.862 194.757 212.19 195.349Z" fill="black"/>
<path d="M61.9707 188.843C61.9707 192.523 61.9707 196.269 61.9707 199.949C61.7078 200.343 61.5106 200.737 61.2478 201.132C60.1306 201.132 59.0792 201.132 57.962 201.132C57.962 191.735 57.962 182.337 57.962 173.335C59.0792 172.743 59.8678 172.349 60.5906 171.955C60.9849 171.955 61.4449 171.955 61.8392 171.955C65.782 172.02 69.7905 172.02 73.7334 172.086C76.8877 172.809 80.3048 173.006 83.1963 174.386C88.2563 176.686 88.322 182.797 83.4591 185.492C81.5534 186.543 79.1877 186.872 77.0191 187.529C75.7048 187.66 74.3905 187.792 73.0105 187.923C69.3963 187.989 65.7163 188.055 62.102 188.12C62.102 188.383 62.0364 188.646 61.9707 188.843ZM62.2335 185.886C67.2277 185.557 72.0248 185.36 76.7563 184.835C79.3191 184.506 81.6848 183.455 81.6848 180.169C81.6848 176.817 79.3191 175.503 76.6248 175.24C71.8934 174.715 67.162 174.583 62.2335 174.32C62.2335 178.329 62.2335 181.746 62.2335 185.886Z" fill="black"/>
<path d="M188.467 172.021C190.109 172.021 191.555 172.021 193.329 172.021C193.329 181.746 193.329 191.406 193.329 201.197C191.752 201.197 190.241 201.197 188.467 201.197C188.467 191.603 188.467 182.009 188.467 172.021Z" fill="black"/>
<path d="M271.205 109.987C271.533 110.907 272.191 111.827 272.191 112.747C272.256 126.613 272.256 140.413 272.191 154.278C272.191 155.33 271.533 156.447 271.205 157.498C271.205 141.661 271.205 125.824 271.205 109.987Z" fill="black"/>
<path d="M60.6533 172.021C59.8648 172.415 59.1419 172.809 58.0248 173.401C58.0248 182.338 58.0248 191.734 58.0248 201.197C57.6305 200.671 56.8418 200.08 56.8418 199.554C56.7761 190.486 56.7761 181.483 56.7761 172.086C58.1561 172.021 59.4048 172.021 60.6533 172.021Z" fill="black"/>
<path d="M87.5991 62.5406C87.4019 62.672 87.2705 62.9348 87.0734 62.9348C78.3991 62.9348 69.7905 63.0006 61.1163 62.9348C60.9191 62.9348 60.7877 62.672 60.5906 62.5406C63.6134 62.4091 66.6362 62.0806 69.6591 62.0806C75.6391 62.212 81.6191 62.4091 87.5991 62.5406Z" fill="#585858"/>
<path d="M143.124 173.072C143.452 173.795 144.044 174.452 144.109 175.175C144.175 182.404 144.175 189.698 144.109 196.927C144.109 197.781 143.518 198.635 143.189 199.489C143.124 190.749 143.124 181.878 143.124 173.072Z" fill="black"/>
<path d="M212.193 195.349C211.798 194.758 211.141 194.232 211.141 193.641C211.076 187.529 211.076 181.418 211.141 175.241C211.141 174.715 211.667 174.123 211.93 173.598C212.061 180.826 212.127 188.12 212.193 195.349Z" fill="black"/>
<path d="M73.8609 172.152C69.9181 172.086 65.9095 172.086 61.9666 172.021C65.9095 172.086 69.8523 172.152 73.8609 172.152Z" fill="#4B494A"/>
<path d="M73.0763 187.99C74.3906 187.858 75.7049 187.727 77.0849 187.595C75.7706 187.727 74.4563 187.858 73.0763 187.99Z" fill="#4B494A"/>
<path d="M261.871 182.929C263.054 182.864 264.237 182.732 265.42 182.667C265.354 183.127 265.289 183.652 265.289 184.112C264.171 183.718 262.989 183.389 261.871 182.929Z" fill="black"/>
<path d="M59.9962 62.6724C58.9448 63.3295 57.8933 63.9866 56.7761 64.6438C57.8276 63.9866 58.879 63.3295 59.9962 62.6724Z" fill="#585858"/>
<path d="M61.2478 201.198C61.5107 200.804 61.7079 200.41 61.9707 200.016C61.7736 200.41 61.5107 200.804 61.2478 201.198Z" fill="#4B494A"/>
<path d="M271.533 159.272C271.533 159.47 271.599 159.732 271.599 159.93C271.599 159.667 271.533 159.47 271.533 159.272Z" fill="#292627"/>
<path d="M61.9666 188.843C62.0323 188.58 62.098 188.383 62.1637 188.12C62.098 188.383 62.0323 188.646 61.9666 188.843Z" fill="#4B494A"/>
<path d="M56.6477 158.615C56.6477 158.812 56.7135 159.075 56.7135 159.272C56.7135 159.01 56.6477 158.812 56.6477 158.615Z" fill="#282627"/>
<path d="M339.942 141.66C342.768 146.326 345.068 150.269 347.433 154.146C351.048 160.126 354.728 166.106 358.276 172.152C360.313 175.569 360.051 176.094 356.371 177.08C347.499 179.446 340.336 175.832 337.445 167.092C335.079 159.797 335.013 152.503 337.971 145.274C338.365 144.289 338.956 143.434 339.942 141.66Z" fill="#FBF9F8"/>
<path d="M97.9111 100.129C97.9111 108.672 97.9111 117.149 97.9111 125.692C97.8453 125.889 97.8453 126.087 97.7796 126.349C97.1882 129.569 96.9253 132.855 96.0711 135.944C94.4282 141.727 90.9453 144.158 84.9653 144.158C76.8168 144.092 77.6711 145.144 77.6711 137.127C77.6711 120.041 77.6711 102.955 77.6711 85.9351C77.6711 81.138 77.7368 81.0723 82.3368 81.0723C92.5882 81.0723 96.8596 85.2123 97.4511 96.0551C97.5168 97.238 97.7796 98.4208 97.9111 99.6037C97.9111 99.7351 97.9111 99.9323 97.9111 100.129Z" fill="#FDFDFD"/>
<path d="M97.8473 126.349C97.913 126.152 97.913 125.955 97.9787 125.692C97.913 125.889 97.8473 126.086 97.8473 126.349Z" fill="#252525"/>
<path d="M175.065 95.3317C175.065 108.343 175.262 121.355 174.933 134.366C174.868 138.506 173.882 142.712 169.019 144.355C163.236 146.326 158.373 143.829 156.862 137.915C156.402 136.009 156.008 134.037 156.008 132.066C155.942 118.857 155.942 105.583 156.008 92.3746C156.008 90.5346 156.402 88.6946 156.928 86.9203C158.176 82.1889 161.133 79.9546 165.602 79.9546C170.268 79.9546 173.225 82.3203 174.342 87.2489C174.933 89.8775 174.605 92.6375 175.065 95.3317C175.196 95.266 174.868 95.3317 175.065 95.3317Z" fill="#FCFCFC"/>
<path d="M280.532 190.946C280.335 191.012 280.138 191.209 280.007 191.143C279.875 191.078 279.875 190.815 279.809 190.618C280.007 190.552 280.204 190.355 280.335 190.42C280.401 190.486 280.467 190.815 280.532 190.946Z" fill="black"/>
<path d="M294.4 173.269C294.729 173.269 295.057 173.269 295.386 173.269C295.386 173.335 295.386 173.466 295.386 173.532C295.057 173.532 294.729 173.532 294.4 173.532C294.4 173.4 294.4 173.335 294.4 173.269Z" fill="black"/>
<path d="M260.691 173.533C260.559 173.664 260.428 173.795 260.362 173.993C260.428 173.795 260.559 173.664 260.625 173.467L260.691 173.533Z" fill="#3A3939"/>
<path d="M125.845 186.74C125.713 188.449 125.648 190.223 125.319 191.932C124.596 195.874 122.165 198.503 118.156 199.029C115.265 199.423 112.242 199.423 109.416 199.029C105.933 198.503 103.436 196.334 102.713 192.72C102.253 190.486 101.991 188.186 101.991 185.952C101.991 181.68 102.516 177.343 106.853 175.306C111.848 172.94 117.105 172.874 121.902 175.963C125.779 178.394 125.845 182.666 125.845 186.74Z" fill="#FBFBFB"/>
<path d="M148.319 198.635C148.319 190.618 148.319 182.864 148.319 174.387C153.576 174.65 158.702 174.584 163.696 175.307C168.428 176.03 170.662 179.184 170.991 184.047C171.056 185.23 171.056 186.478 170.991 187.661C170.793 194.232 167.311 198.11 160.805 198.57C156.796 198.832 152.788 198.635 148.319 198.635Z" fill="#FAFAFA"/>
<path d="M62.2335 185.886C62.2335 181.68 62.2335 178.263 62.2335 174.32C67.162 174.649 71.9592 174.714 76.6249 175.24C79.3192 175.568 81.6849 176.817 81.6849 180.168C81.6849 183.388 79.2535 184.506 76.7563 184.835C72.0249 185.426 67.2277 185.557 62.2335 185.886Z" fill="#F7F7F7"/>
</g>
<defs>
<clipPath id="clip0_38_37">
<rect width="460" height="262.857" fill="white"/>
</clipPath>
</defs>
</svg>
