<?xml version="1.0" encoding="UTF-8"?> <svg xmlns="http://www.w3.org/2000/svg" width="24" height="24" viewBox="0 0 24 24" fill="none"><path d="M13.6099 12.2438C13.6038 12.5606 13.5039 12.8684 13.3227 13.1283C13.1415 13.3882 12.8872 13.5885 12.592 13.7037C12.2969 13.819 11.9742 13.844 11.6648 13.7756C11.3554 13.7072 11.0733 13.5485 10.8542 13.3196C10.6352 13.0907 10.489 12.8019 10.4342 12.4898C10.3795 12.1777 10.4186 11.8564 10.5467 11.5666C10.6747 11.2768 10.886 11.0315 11.1536 10.8619C11.4212 10.6923 11.7331 10.6059 12.0499 10.6138C12.4708 10.6294 12.8691 10.8083 13.1603 11.1126C13.4515 11.4168 13.6128 11.8226 13.6099 12.2438Z" fill="white"></path><path d="M14.7615 7.23242H9.3365C8.7997 7.23242 8.28489 7.44566 7.90532 7.82524C7.52574 8.20481 7.3125 8.71962 7.3125 9.25642V14.8034C7.3125 15.0692 7.36485 15.3324 7.46657 15.578C7.56828 15.8235 7.71737 16.0467 7.90532 16.2346C8.09326 16.4226 8.31639 16.5716 8.56195 16.6734C8.80751 16.7751 9.0707 16.8274 9.3365 16.8274H14.7615C15.0273 16.8274 15.2905 16.7751 15.5361 16.6734C15.7816 16.5716 16.0047 16.4226 16.1927 16.2346C16.3806 16.0467 16.5297 15.8235 16.6314 15.578C16.7331 15.3324 16.7855 15.0692 16.7855 14.8034V9.26642C16.7866 8.99986 16.735 8.73571 16.6338 8.48911C16.5326 8.24251 16.3837 8.01831 16.1956 7.82936C16.0076 7.6404 15.7842 7.49041 15.5381 7.38798C15.292 7.28555 15.0281 7.23268 14.7615 7.23242ZM12.0485 14.9554C11.5115 14.9675 10.983 14.8194 10.5305 14.5298C10.0781 14.2403 9.72216 13.8225 9.50819 13.3298C9.29422 12.8371 9.23191 12.2918 9.32922 11.7635C9.42652 11.2352 9.67903 10.7479 10.0545 10.3637C10.43 9.97959 10.9114 9.71603 11.4373 9.60669C11.9633 9.49736 12.5098 9.5472 13.0073 9.74987C13.5048 9.95254 13.9306 10.2988 14.2304 10.7446C14.5302 11.1903 14.6904 11.7153 14.6905 12.2524C14.6946 12.6034 14.6295 12.9518 14.4989 13.2776C14.3683 13.6034 14.1749 13.9003 13.9295 14.1513C13.6842 14.4023 13.3918 14.6025 13.069 14.7405C12.7463 14.8785 12.3995 14.9515 12.0485 14.9554ZM14.9845 9.55042C14.9185 9.55044 14.8532 9.53728 14.7924 9.51173C14.7315 9.48618 14.6764 9.44875 14.6302 9.40163C14.584 9.35451 14.5477 9.29864 14.5233 9.23731C14.499 9.17597 14.4872 9.11039 14.4885 9.04442C14.4885 8.91022 14.5418 8.78152 14.6367 8.68663C14.7316 8.59173 14.8603 8.53842 14.9945 8.53842C15.1287 8.53842 15.2574 8.59173 15.3523 8.68663C15.4472 8.78152 15.5005 8.91022 15.5005 9.04442C15.5025 9.11586 15.489 9.18688 15.461 9.25263C15.433 9.31837 15.3911 9.37729 15.3382 9.42534C15.2853 9.47339 15.2227 9.50945 15.1545 9.53104C15.0864 9.55263 15.0144 9.55924 14.9435 9.55042H14.9845Z" fill="white"></path><path d="M12.0501 2.00013C9.39796 1.98686 6.84915 3.02771 4.96441 4.8937C3.07967 6.75969 2.01339 9.29796 2.00013 11.9501C1.98686 14.6023 3.02771 17.1511 4.8937 19.0358C6.75969 20.9206 9.29796 21.9869 11.9501 22.0001C13.2633 22.0067 14.565 21.7545 15.7808 21.2581C16.9965 20.7616 18.1026 20.0305 19.0358 19.1065C19.9691 18.1826 20.7112 17.0839 21.2198 15.8732C21.7284 14.6624 21.9936 13.3633 22.0001 12.0501C22.0067 10.7369 21.7545 9.43525 21.2581 8.21948C20.7616 7.00372 20.0305 5.89764 19.1065 4.96441C18.1826 4.03118 17.0839 3.28908 15.8732 2.78046C14.6624 2.27185 13.3633 2.00669 12.0501 2.00013ZM18.1231 14.7021C18.1259 15.1508 18.0396 15.5955 17.8693 16.0105C17.6989 16.4256 17.4478 16.8026 17.1306 17.1199C16.8134 17.4372 16.4364 17.6884 16.0214 17.8589C15.6065 18.0294 15.1618 18.1158 14.7131 18.1131H9.38913C8.94057 18.1156 8.49596 18.0292 8.08105 17.8587C7.66614 17.6882 7.28915 17.4372 6.97192 17.12C6.65469 16.8029 6.40351 16.426 6.23293 16.0111C6.06234 15.5963 5.97574 15.1517 5.97813 14.7031V9.37813C5.97534 8.92949 6.06163 8.48477 6.232 8.06973C6.40237 7.6547 6.65343 7.27761 6.97062 6.96033C7.28781 6.64304 7.66482 6.39187 8.07981 6.22138C8.49479 6.05089 8.93949 5.96447 9.38812 5.96713H14.7131C15.1617 5.96447 15.6063 6.05086 16.0212 6.22129C16.4361 6.39172 16.8131 6.6428 17.1303 6.95997C17.4475 7.27715 17.6985 7.65412 17.869 8.06904C18.0394 8.48396 18.1258 8.92858 18.1231 9.37713V14.7021Z" fill="white"></path></svg> 