<svg width="460" height="264" viewBox="0 0 460 264" fill="none" xmlns="http://www.w3.org/2000/svg">
<g clip-path="url(#clip0_38_98)">
<path d="M460 0.286133H0V263.143H460V0.286133Z" fill="white"/>
<path d="M99.6459 182.137C94.6319 182.137 89.7448 182.137 84.7662 182.137C84.7662 181.667 84.7662 181.268 84.7662 180.852C84.7662 162.624 84.7846 144.413 84.7485 126.185C84.7485 124.573 84.5671 122.908 84.1689 121.351C83.3363 118.111 81.3274 115.668 78.25 114.346C73.1092 112.138 67.8415 111.993 62.7185 114.292C58.1749 116.319 55.7674 120.012 55.4958 125.008C55.4596 125.606 55.4596 126.221 55.4596 126.818C55.4596 144.794 55.4596 162.786 55.4596 180.762C55.4596 181.214 55.4596 181.649 55.4596 182.137C50.5179 182.137 45.7028 182.137 40.8153 182.137C40.7972 181.775 40.761 181.467 40.761 181.142C40.761 154.93 40.761 128.701 40.7429 102.489C40.7429 101.621 40.9782 101.367 41.8471 101.385C45.5037 101.439 49.1421 101.439 52.7987 101.385C53.6857 101.367 53.9029 101.657 53.921 102.508C53.9934 104.517 54.1925 106.526 54.3374 108.536C54.4641 108.626 54.5727 108.716 54.6994 108.825C54.808 108.59 54.8623 108.3 55.0252 108.101C58.8628 103.648 63.6054 100.879 69.4522 100.028C77.5258 98.8692 84.9115 100.191 91.0295 105.965C92.351 107.214 93.455 108.698 94.6503 110.074C95.6275 109.06 96.6053 107.92 97.7093 106.906C101.855 103.087 106.832 101.005 112.335 100.136C116.843 99.4304 121.332 99.322 125.803 100.462C135.361 102.906 142.095 110.509 143.326 120.338C143.507 121.859 143.633 123.397 143.633 124.935C143.651 143.581 143.651 162.225 143.651 180.87C143.651 181.251 143.651 181.649 143.651 182.101C138.728 182.101 133.895 182.101 128.953 182.101C128.953 181.703 128.953 181.323 128.953 180.942C128.953 162.66 128.971 144.377 128.935 126.094C128.935 124.483 128.736 122.836 128.319 121.279C127.342 117.659 124.916 115.215 121.422 113.93C117.006 112.319 112.498 112.228 108.046 113.785C102.796 115.632 99.7366 120.012 99.6821 125.569C99.6459 129.497 99.6643 133.407 99.6643 137.336C99.6643 151.817 99.6643 166.298 99.6643 180.779C99.6459 181.214 99.6459 181.63 99.6459 182.137Z" fill="black"/>
<path d="M418.996 141.082C418.979 165.664 399.429 185.124 374.774 185.106C350.191 185.088 330.787 165.556 330.804 140.865C330.841 116.446 350.354 96.9864 374.846 96.9502C399.429 96.9318 419.015 116.518 418.996 141.082ZM346.264 116.264C340.742 122.6 337.919 130.022 337.34 138.457C341.956 138.457 346.463 138.457 350.843 138.457C351.405 135.434 351.821 132.448 352.509 129.533C353.197 126.619 354.138 123.759 354.952 120.898C352.129 119.396 349.269 117.876 346.264 116.264ZM412.426 138.476C412.371 137.769 412.335 137.172 412.263 136.575C412.173 135.76 412.046 134.964 411.919 134.167C410.815 127.632 408.19 121.804 403.917 116.735C403.574 116.319 403.32 116.247 402.796 116.536C400.388 117.894 397.944 119.197 395.482 120.446C394.813 120.79 394.722 121.08 394.957 121.749C396.351 125.515 397.419 129.37 398.071 133.334C398.342 135.054 398.578 136.774 398.831 138.493C403.356 138.476 407.846 138.476 412.426 138.476ZM355.043 161.139C354.916 160.777 354.753 160.361 354.609 159.944C352.781 154.894 351.441 149.717 351.097 144.322C351.061 143.617 350.717 143.58 350.174 143.58C346.191 143.598 342.209 143.58 338.245 143.598C337.973 143.598 337.72 143.634 337.34 143.67C337.937 152.124 340.761 159.564 346.264 165.845C349.269 164.234 352.129 162.695 355.043 161.139ZM403.502 165.827C409.022 159.528 411.847 152.088 412.426 143.653C407.846 143.653 403.32 143.653 398.741 143.653C398.342 149.771 396.822 155.563 394.704 161.121C397.691 162.732 400.551 164.252 403.502 165.827ZM377.435 138.44C382.848 138.44 388.224 138.44 393.672 138.44C393.256 132.954 392.007 127.741 390.196 122.908C385.888 123.994 381.689 125.062 377.435 126.148C377.435 130.112 377.435 134.258 377.435 138.44ZM377.435 155.944C381.743 157.048 385.961 158.116 390.215 159.184C391.971 154.26 393.274 149.065 393.654 143.653C388.151 143.653 382.811 143.653 377.417 143.653C377.435 147.852 377.435 151.979 377.435 155.944ZM356.093 138.44C361.559 138.44 366.9 138.44 372.24 138.44C372.276 138.294 372.312 138.204 372.312 138.114C372.312 134.221 372.312 130.33 372.33 126.438C372.33 125.84 371.986 125.768 371.534 125.696C370.158 125.478 368.782 125.334 367.443 124.99C364.836 124.32 362.247 123.523 359.587 122.763C357.74 127.759 356.473 132.973 356.093 138.44ZM356.093 143.653C356.528 149.156 357.795 154.369 359.568 159.202C363.876 158.098 368.058 157.048 372.294 155.962C372.294 151.998 372.294 147.852 372.294 143.653C366.882 143.653 361.523 143.653 356.093 143.653ZM388.44 118.202C388.296 117.839 388.205 117.604 388.097 117.351C386.178 112.934 383.734 108.843 381.056 104.86C380.096 103.43 378.865 103.43 377.471 103.43C377.471 109.187 377.471 114.87 377.471 120.627C381.236 120.229 384.82 119.432 388.44 118.202ZM377.471 161.555C377.471 167.293 377.471 172.978 377.471 178.644C379.643 178.77 380.114 178.625 381.218 176.888C382.865 174.299 384.44 171.656 385.943 168.977C386.866 167.33 387.572 165.574 388.368 163.854C386.25 162.894 379.516 161.465 377.471 161.555ZM372.276 120.609C372.276 114.834 372.276 109.151 372.276 103.449C370.773 103.376 369.488 103.466 368.674 104.951C367.986 106.218 367.008 107.323 366.302 108.571C364.547 111.685 362.863 114.834 361.107 118.093C364.89 119.396 368.493 120.247 372.276 120.609ZM372.276 161.483C368.511 161.827 364.963 162.623 361.433 163.8C363.37 168.579 365.85 172.959 368.674 177.177C369.615 178.589 370.809 178.697 372.276 178.661C372.276 172.942 372.276 167.293 372.276 161.483ZM349.812 169.375C353.667 172.779 357.74 175.15 362.266 176.562C360.401 172.978 358.537 169.393 356.6 165.683C354.446 166.859 352.201 168.072 349.812 169.375ZM399.971 169.375C397.546 168.072 395.283 166.841 393.165 165.7C391.21 169.448 389.382 172.995 387.518 176.58C392.079 175.113 396.152 172.76 399.971 169.375ZM387.482 105.512C389.4 109.078 391.301 112.626 393.274 116.301C395.41 115.143 397.618 113.948 399.935 112.699C396.116 109.314 392.007 106.96 387.482 105.512ZM362.284 105.512C357.722 106.997 353.595 109.314 349.829 112.716C352.219 113.984 354.427 115.179 356.509 116.283C358.5 112.59 360.383 109.078 362.284 105.512Z" fill="black"/>
<path d="M172.689 145.353C172.924 153.97 177.359 165.247 187.948 169.356C191.478 170.731 195.135 171.057 198.882 170.822C205.924 170.406 212.132 167.962 217.545 163.455C217.653 163.364 217.798 163.31 218.07 163.129C217.617 165.41 217.201 167.564 216.767 169.7C216.187 172.542 215.59 175.366 215.047 178.208C214.938 178.824 214.63 179.149 214.141 179.439C210.014 181.792 205.562 183.059 200.873 183.602C197.126 184.037 193.36 184.163 189.596 183.638C182.97 182.715 177.087 180.127 171.982 175.836C164.488 169.537 160.18 161.373 158.388 151.869C156.379 141.19 157.266 130.709 161.755 120.735C165.538 112.335 171.458 105.873 180.001 102.126C194.809 95.6457 214.377 101.674 220.242 120.807C221.509 124.916 221.889 129.134 221.509 133.406C221.473 133.786 221.292 134.238 221.02 134.51C217.708 137.968 214.377 141.425 210.992 144.828C210.666 145.154 210.033 145.299 209.544 145.299C197.723 145.317 185.885 145.317 174.064 145.317C173.648 145.353 173.214 145.353 172.689 145.353ZM173.358 133.062C184.509 133.062 195.515 133.062 206.647 133.062C206.647 131.433 206.792 129.822 206.611 128.265C206.086 123.486 204.258 119.25 200.71 115.884C198.664 113.946 196.257 112.733 193.397 112.462C189.686 112.118 186.428 113.313 183.532 115.503C177.739 119.884 174.716 125.93 173.358 133.062Z" fill="black"/>
<path d="M228.567 113.441C228.567 109.404 228.567 105.494 228.567 101.421C228.929 101.421 229.274 101.421 229.617 101.421C233.383 101.421 237.166 101.385 240.931 101.44C241.909 101.457 242.072 101.131 242.072 100.263C242.036 95.8822 242.072 91.5194 242.036 87.1389C242.036 86.3609 242.289 85.9804 242.977 85.6183C247.23 83.4103 251.448 81.1471 255.684 78.903C255.92 78.7761 256.155 78.667 256.553 78.4863C256.553 86.1618 256.553 93.7097 256.553 101.385C264.681 101.385 272.681 101.385 280.827 101.385C280.556 102.942 280.302 104.353 280.049 105.766C279.651 107.992 279.217 110.201 278.872 112.446C278.745 113.242 278.456 113.459 277.66 113.459C271.052 113.423 264.445 113.441 257.838 113.441C256.589 113.441 256.589 113.441 256.589 114.726C256.589 129.715 256.589 144.703 256.589 159.691C256.589 161.429 256.698 163.13 257.44 164.723C259.178 168.47 262.309 170.099 266.255 170.317C269.043 170.461 271.795 170.172 274.564 168.923C274.293 170.425 274.057 171.764 273.804 173.104C273.297 175.82 272.736 178.535 272.265 181.268C272.139 182.011 271.795 182.336 271.107 182.535C268.699 183.259 266.237 183.314 263.757 183.205C259.178 183.006 254.906 181.812 251.104 179.169C246.271 175.801 243.519 171.095 242.542 165.339C242.198 163.293 242.089 161.193 242.089 159.13C242.053 144.377 242.072 129.624 242.072 114.889C242.072 113.169 242.18 113.423 240.551 113.405C236.967 113.387 233.365 113.405 229.78 113.405C229.382 113.441 229.02 113.441 228.567 113.441Z" fill="black"/>
<path d="M306.584 182.136C301.588 182.136 296.718 182.136 291.777 182.136C291.777 155.273 291.777 128.41 291.777 101.475C292.03 101.457 292.302 101.42 292.555 101.42C296.628 101.42 300.701 101.439 304.774 101.402C305.552 101.402 305.697 101.674 305.733 102.398C305.841 105.71 306.023 109.023 306.186 112.335C306.204 112.535 306.222 112.734 306.258 113.096C306.403 112.879 306.475 112.788 306.529 112.698C309.173 107.014 313.752 103.647 319.581 101.819C322.731 100.823 326.007 100.479 329.301 100.37C329.736 100.353 330.098 100.334 330.189 100.95C330.877 104.896 331.6 108.842 332.307 112.77C332.324 112.879 332.307 113.006 332.307 113.205C331.311 113.259 330.315 113.295 329.338 113.349C319.038 114.019 311.109 120.301 308.086 130.148C307.127 133.279 306.602 136.484 306.602 139.76C306.584 153.463 306.584 167.148 306.584 180.851C306.584 181.249 306.584 181.629 306.584 182.136Z" fill="black"/>
<path d="M412.46 101.439C408.966 101.439 406.125 98.6151 406.125 95.1217C406.125 91.6461 408.985 88.804 412.478 88.8224C415.936 88.8401 418.76 91.6461 418.777 95.1033C418.796 98.579 415.954 101.439 412.46 101.439ZM417.547 95.1217C417.547 92.2612 415.32 90.017 412.46 90.017C409.618 90.017 407.337 92.2612 407.301 95.0856C407.283 97.9093 409.637 100.28 412.46 100.263C415.302 100.263 417.547 97.9816 417.547 95.1217Z" fill="black"/>
<path d="M411.231 98.6882C410.725 98.6882 410.363 98.6882 409.928 98.6882C409.928 96.3528 409.91 94.0718 409.946 91.7909C409.946 91.6286 410.236 91.3026 410.399 91.3026C411.322 91.2842 412.263 91.2842 413.187 91.3749C414.11 91.4656 414.87 91.8638 415.087 92.8771C415.304 93.8727 414.906 94.5607 414.001 95.0674C415.286 95.9907 414.798 97.4568 415.286 98.6337C413.766 98.8506 413.712 98.8144 413.53 97.4568C413.53 97.4206 413.53 97.4029 413.53 97.3667C413.313 95.6286 413.078 95.4479 411.231 95.6647C411.231 96.6426 411.231 97.6197 411.231 98.6882ZM411.286 92.5696C411.286 93.2031 411.286 93.7459 411.286 94.3978C411.937 94.3255 412.517 94.38 413.024 94.1809C413.295 94.0718 413.567 93.5652 413.567 93.2392C413.567 93.0224 413.096 92.678 412.788 92.6057C412.336 92.4973 411.847 92.5696 411.286 92.5696Z" fill="black"/>
</g>
<defs>
<clipPath id="clip0_38_98">
<rect width="460" height="262.857" fill="white" transform="translate(0 0.286133)"/>
</clipPath>
</defs>
</svg>
