<svg width="460" height="264" viewBox="0 0 460 264" fill="none" xmlns="http://www.w3.org/2000/svg">
<g clip-path="url(#clip0_38_51)">
<path d="M460 0.857422H0V263.715H460V0.857422Z" fill="white"/>
<path d="M0 203.559C0 155.973 0 108.386 0 60.6572C153.333 60.6572 306.524 60.6572 460 60.6572C460 108.244 460 155.83 460 203.559C306.667 203.559 153.333 203.559 0 203.559ZM211.494 112.531C210.351 110.958 209.922 110.387 209.494 109.672C199.633 95.5252 177.626 95.6678 168.767 110.53C159.907 125.392 159.478 141.254 167.481 156.544C176.34 173.549 199.062 174.407 209.922 158.688C210.351 157.973 210.922 157.402 211.637 156.544C211.637 159.974 211.78 162.832 211.637 165.833C211.494 168.262 212.78 168.548 214.781 168.548C216.639 168.548 218.497 168.833 218.353 165.976C218.211 163.546 218.211 160.974 218.211 158.545C218.211 132.537 218.211 106.386 218.211 80.3774C218.211 77.948 218.211 76.3761 214.924 76.5193C212.209 76.6619 211.494 77.3769 211.494 79.949C211.637 90.3805 211.494 100.813 211.494 112.531ZM282.374 134.395C280.944 127.964 280.373 122.105 278.372 116.675C274.657 106.386 266.94 100.527 255.937 99.5266C245.219 98.669 235.931 101.527 229.928 110.816C220.783 125.106 220.64 140.254 227.785 155.401C231.214 162.832 237.645 167.405 245.648 168.833C250.078 169.691 254.936 169.691 259.509 169.119C271.227 167.691 280.373 157.544 280.802 144.826C275.514 143.826 275.371 143.826 274.085 148.542C270.227 162.546 259.795 166.405 247.077 163.832C235.073 161.402 228.928 148.971 229.928 134.251C246.791 134.395 263.939 134.395 282.374 134.395ZM404.268 134.68C403.983 134.68 403.84 134.537 403.554 134.537C403.554 133.394 403.697 132.108 403.554 130.965C402.268 113.674 393.694 100.669 375.688 99.2407C361.684 98.2405 349.68 105.814 345.679 119.247C342.678 129.25 342.535 139.396 345.679 149.542C349.537 162.26 359.826 169.691 373.544 169.691C386.834 169.691 397.409 162.546 401.267 150.257C402.84 145.255 403.268 139.968 404.268 134.68ZM340.677 123.106C340.677 122.534 340.677 121.962 340.677 121.39C339.105 110.53 332.389 102.813 322.1 100.241C310.097 97.2397 297.092 100.955 291.091 109.53C282.659 121.533 282.374 134.823 285.66 148.542C291.662 172.835 318.67 173.978 331.674 164.118C338.248 159.116 341.106 151.971 341.535 143.54C339.391 143.54 337.676 143.54 335.676 143.54C335.39 144.826 335.247 145.969 335.104 147.113C333.246 156.544 326.959 162.975 318.242 164.118C306.524 165.69 297.807 161.974 293.949 152.543C288.661 139.682 288.518 126.392 295.377 113.959C300.379 105.1 309.096 103.528 318.384 104.814C326.673 105.957 331.674 111.101 333.818 119.104C335.104 124.248 335.39 124.392 340.677 123.106ZM63.5912 168.119C64.0199 168.262 64.4486 168.405 64.8774 168.548C65.306 167.547 66.1631 166.69 66.1631 165.69C66.3064 151.829 66.5922 137.824 66.0205 123.962C65.8779 118.961 67.3065 115.245 70.0219 111.53C71.4505 109.815 72.8798 107.958 74.4517 106.386C84.4547 96.6687 100.745 101.241 103.89 114.817C104.747 118.247 105.032 121.819 105.032 125.392C105.176 138.11 105.032 150.828 105.032 163.546C105.032 165.118 105.747 166.69 106.176 168.262C106.604 166.69 107.462 164.975 107.605 163.403C107.748 153.257 107.748 143.112 107.605 133.109C107.605 127.964 107.605 122.82 107.033 117.818C105.747 106.958 99.4592 100.098 90.4564 99.2407C83.0261 98.5264 76.5953 100.669 71.5937 106.386C69.3069 108.958 67.3065 111.816 65.0202 114.817C62.8767 106.386 58.4467 100.527 49.5868 99.3833C40.4412 98.0973 33.296 101.67 27.8658 108.958C26.4368 110.816 25.1507 112.816 23.4359 115.245C23.293 113.674 23.1501 112.673 23.1501 111.673C23.1501 108.958 23.293 106.243 23.1501 103.528C23.1501 102.67 22.2926 101.813 21.8639 100.955C21.4352 101.67 20.8636 102.527 20.5778 103.242C20.435 103.528 20.5778 103.956 20.5778 104.242C20.5778 124.534 20.5778 144.683 20.5778 164.975C20.5778 165.69 20.435 166.405 20.5778 167.119C20.7208 167.547 21.2923 168.405 21.5781 168.262C22.1497 168.119 22.8642 167.691 23.0071 167.119C23.2929 166.261 23.1501 165.261 23.1501 164.261C23.1501 151.685 23.15 138.967 22.8642 126.392C22.7214 121.39 24.1503 117.246 26.8654 113.388C28.5803 111.101 30.1522 108.672 32.1528 106.672C37.4402 101.527 43.8707 100.098 50.8729 101.956C57.5893 103.671 60.7331 108.672 62.1622 114.96C62.8767 118.247 63.1625 121.819 63.3053 125.248C63.4483 138.253 63.3053 151.257 63.3053 164.118C63.5911 165.547 63.5912 166.833 63.5912 168.119ZM413.986 110.959C414.129 111.244 414.271 111.53 414.415 111.816C414.557 109.386 414.701 106.814 414.843 104.385C414.986 102.099 414.986 100.527 411.842 100.527C409.127 100.527 408.126 101.241 408.126 104.1C408.27 124.248 408.27 144.54 408.126 164.69C408.126 166.976 408.27 168.405 411.271 168.405C414.129 168.405 414.843 167.547 414.843 164.69C414.557 152.971 414.557 141.111 414.557 129.393C414.415 114.245 426.561 103.099 440.566 105.957C440.994 106.1 441.423 105.814 441.852 105.672C442.423 100.241 442.138 99.955 436.993 99.955C430.991 99.955 425.56 101.67 420.845 105.672C418.844 107.529 416.415 109.244 413.986 110.959ZM136.9 164.404C134.899 159.402 133.184 154.972 131.469 150.543C125.468 134.966 119.466 119.247 113.464 103.671C112.893 102.241 112.892 99.8124 109.748 101.098C110.32 102.527 110.749 103.814 111.177 105.1C119.037 125.248 126.896 145.398 134.756 165.547C135.327 167.119 135.328 169.263 134.899 170.977C132.755 177.408 130.326 183.839 128.04 190.269C128.468 190.555 128.754 190.698 129.183 190.983C129.897 189.84 130.898 188.84 131.327 187.553C140.33 161.974 149.189 136.395 158.049 110.816C159.192 107.672 160.192 104.385 161.336 101.241C160.907 100.955 160.621 100.67 160.192 100.527C159.478 101.384 158.335 102.241 157.906 103.242C154.905 111.53 152.19 119.818 149.332 128.107C145.331 139.968 141.186 151.829 136.9 164.404Z" fill="white"/>
<path d="M211.491 112.531C211.491 100.956 211.634 90.3816 211.491 79.8068C211.491 77.0915 212.348 76.3772 214.92 76.3772C218.208 76.2339 218.208 77.8065 218.208 80.2353C218.208 106.244 218.208 132.395 218.208 158.402C218.208 160.832 218.208 163.404 218.35 165.833C218.493 168.691 216.636 168.405 214.778 168.405C212.777 168.405 211.634 168.12 211.634 165.691C211.777 162.69 211.634 159.688 211.634 156.402C210.919 157.26 210.491 157.831 209.919 158.546C198.916 174.265 176.194 173.407 167.477 156.402C159.618 141.112 159.904 125.25 168.763 110.388C177.624 95.5257 199.487 95.3831 209.491 109.53C210.062 110.245 210.491 110.959 211.491 112.531ZM212.206 134.824C212.063 127.393 211.205 120.248 207.347 113.817C199.773 100.956 180.482 100.813 173.479 114.103C166.477 127.536 166.763 141.54 173.622 154.83C180.338 167.691 199.344 167.977 207.061 155.688C211.348 149.257 212.206 142.112 212.206 134.824Z" fill="black"/>
<path d="M280.507 134.394C262.073 134.394 246.925 134.394 229.921 134.394C228.92 149.114 235.065 161.546 247.069 163.975C259.787 166.548 270.218 162.689 274.077 148.685C275.363 143.969 275.506 143.969 280.793 144.969C280.365 157.831 271.219 167.976 259.501 169.262C254.928 169.834 250.212 169.691 245.639 168.976C237.637 167.548 231.207 162.975 227.777 155.544C220.774 140.397 220.774 125.249 229.921 110.959C235.922 101.67 245.211 98.6694 255.928 99.6696C267.075 100.67 274.648 106.529 278.364 116.818C280.365 121.962 280.65 127.821 280.507 134.394ZM274.506 128.964C274.22 120.39 272.219 112.96 264.931 108.101C257.5 103.242 249.355 102.956 241.638 107.243C233.35 111.816 230.921 119.962 229.777 128.964C244.782 128.964 259.501 128.964 274.506 128.964Z" fill="black"/>
<path d="M401.274 150.398C397.415 162.688 386.84 169.975 373.551 169.833C359.832 169.833 349.543 162.402 345.685 149.684C342.684 139.681 342.684 129.534 345.685 119.389C349.829 105.956 361.69 98.2391 375.694 99.3819C393.843 100.669 402.417 113.672 403.56 131.106C403.703 132.25 403.56 133.536 403.56 134.679C403.846 134.679 402.846 145.254 401.274 150.398ZM351.686 147.54C354.402 158.257 361.833 164.116 372.979 164.688C383.411 165.117 391.699 159.544 394.843 149.398C397.987 139.681 397.987 129.678 394.843 119.96C391.699 109.957 383.554 104.241 373.408 104.383C362.833 104.527 355.259 109.957 352.116 120.103C350.829 124.676 350.686 143.253 351.686 147.54Z" fill="black"/>
<path d="M340.683 123.107C335.253 124.393 335.109 124.251 333.823 119.249C331.68 111.246 326.678 106.102 318.39 104.959C309.102 103.53 300.385 105.102 295.383 114.104C288.381 126.537 288.666 139.827 293.954 152.688C297.813 162.262 306.53 165.835 318.247 164.263C326.964 163.119 333.252 156.689 335.109 147.257C335.395 146.114 335.538 144.971 335.681 143.685C337.682 143.685 339.397 143.685 341.54 143.685C341.112 152.116 338.253 159.261 331.68 164.263C318.819 173.98 291.668 172.98 285.666 148.687C282.379 134.968 282.665 121.678 291.096 109.675C297.098 101.1 310.102 97.3847 322.106 100.386C332.395 102.958 339.111 110.675 340.683 121.535C340.826 121.964 340.683 122.536 340.683 123.107Z" fill="black"/>
<path d="M63.5937 168.12C63.5937 166.834 63.5937 165.548 63.5937 164.262C63.5937 151.258 63.7366 138.254 63.5937 125.393C63.5937 121.963 63.165 118.534 62.4505 115.104C61.1644 108.816 57.8777 103.815 51.1613 102.1C44.0162 100.242 37.7286 101.671 32.4412 106.815C30.4406 108.816 28.7258 111.245 27.1538 113.532C24.2958 117.39 23.0097 121.534 23.1526 126.536C23.4384 139.111 23.4385 151.83 23.4385 164.405C23.4385 165.405 23.5813 166.405 23.2955 167.263C23.1526 167.692 22.4381 168.12 21.8664 168.406C21.7236 168.406 21.0091 167.692 20.8661 167.263C20.7232 166.548 20.8661 165.834 20.8661 165.119C20.8661 144.827 20.8661 124.678 20.8661 104.386C20.8661 104.1 20.7232 103.672 20.8661 103.386C21.2949 102.528 21.7236 101.814 22.1523 101.1C22.581 101.957 23.2955 102.814 23.4385 103.672C23.5813 106.387 23.4385 109.102 23.4385 111.817C23.4385 112.817 23.5813 113.818 23.7242 115.39C25.439 112.96 26.7252 110.96 28.1542 109.102C33.5844 101.814 40.7295 98.3843 49.8752 99.5277C58.7351 100.814 63.165 106.673 65.3086 114.961C67.595 111.96 69.5953 109.245 71.8822 106.53C76.8837 100.814 83.3138 98.6702 90.7448 99.3845C99.7477 100.242 106.178 107.101 107.322 117.962C107.893 122.963 107.893 128.108 107.893 133.252C108.036 143.399 108.036 153.544 107.893 163.547C107.893 165.119 107.036 166.834 106.464 168.406C106.035 166.834 105.321 165.262 105.321 163.691C105.321 150.972 105.464 138.254 105.321 125.535C105.321 121.963 105.035 118.39 104.178 114.961C101.034 101.385 84.7431 96.8124 74.7401 106.53C73.1682 108.101 71.7389 109.817 70.3103 111.674C67.4524 115.247 66.0231 119.105 66.3089 124.107C66.8807 137.968 66.4515 151.972 66.4515 165.834C66.4515 166.834 65.5943 167.692 65.1656 168.692C64.4511 168.406 64.0224 168.263 63.5937 168.12Z" fill="black"/>
<path d="M413.991 110.96C416.421 109.102 418.85 107.53 420.994 105.529C425.71 101.528 431.14 99.8135 437.142 99.8135C442.286 99.8135 442.429 100.242 442.001 105.529C441.572 105.673 441.143 105.958 440.714 105.815C426.71 102.957 414.706 114.104 414.706 129.251C414.706 140.969 414.849 152.83 414.992 164.548C414.992 167.263 414.277 168.263 411.419 168.263C408.419 168.263 408.276 166.834 408.276 164.548C408.276 144.399 408.419 124.107 408.276 103.957C408.276 101.1 409.276 100.385 411.991 100.385C415.135 100.385 415.135 101.957 414.992 104.243C414.706 106.673 414.706 109.245 414.563 111.674C414.421 111.532 414.277 111.246 413.991 110.96Z" fill="black"/>
<path d="M136.894 164.405C141.181 151.829 145.325 139.968 149.327 127.965C152.184 119.677 155.042 111.388 157.901 103.1C158.329 102.1 159.473 101.242 160.187 100.385C160.616 100.671 160.901 100.956 161.331 101.099C160.187 104.243 159.187 107.53 158.044 110.674C149.184 136.253 140.324 161.832 131.321 187.412C130.892 188.698 129.892 189.698 129.177 190.841C128.749 190.556 128.463 190.413 128.034 190.127C130.321 183.697 132.75 177.266 134.894 170.835C135.465 169.263 135.465 167.12 134.75 165.405C127.034 145.256 119.032 125.106 111.172 104.958C110.6 103.672 110.171 102.386 109.743 100.956C112.887 99.6704 112.887 102.1 113.458 103.529C119.46 119.105 125.462 134.824 131.464 150.401C133.179 154.973 134.894 159.403 136.894 164.405Z" fill="black"/>
<path d="M212.212 134.824C212.069 142.112 211.212 149.257 207.21 155.688C199.351 167.977 180.345 167.834 173.772 154.83C166.912 141.54 166.626 127.536 173.628 114.103C180.631 100.813 199.923 100.956 207.496 113.817C211.212 120.248 212.212 127.393 212.212 134.824Z" fill="white"/>
<path d="M274.512 128.964C259.508 128.964 244.789 128.964 229.784 128.964C230.928 119.961 233.357 111.815 241.645 107.242C249.362 102.955 257.507 103.098 264.938 108.1C272.226 112.816 274.227 120.389 274.512 128.964Z" fill="white"/>
<path d="M352.249 120.104C355.393 109.958 362.966 104.528 373.541 104.385C383.687 104.242 391.833 109.815 394.976 119.961C398.12 129.678 398.12 139.682 394.976 149.399C391.69 159.544 383.402 165.118 373.113 164.689C361.966 164.117 354.535 158.258 351.82 147.541C350.677 143.254 350.82 124.676 352.249 120.104Z" fill="white"/>
</g>
<defs>
<clipPath id="clip0_38_51">
<rect width="460" height="262.857" fill="white" transform="translate(0 0.857422)"/>
</clipPath>
</defs>
</svg>
