<svg width="460" height="264" viewBox="0 0 460 264" fill="none" xmlns="http://www.w3.org/2000/svg">
<g clip-path="url(#clip0_38_73)">
<path d="M460 0.571289H0V263.428H460V0.571289Z" fill="white"/>
<mask id="mask0_38_73" style="mask-type:luminance" maskUnits="userSpaceOnUse" x="21" y="103" width="418" height="59">
<path d="M438.783 103.086H21.0286V161.572H438.783V103.086Z" fill="white"/>
</mask>
<g mask="url(#mask0_38_73)">
<path d="M407.206 121.423V151.771H412.395C415.261 151.771 417.586 147.3 417.586 141.786C417.586 141.471 417.586 141.16 417.561 140.85H417.586V118.861H438.129V113.688H412.376C409.524 113.679 407.206 117.146 407.206 121.423ZM328.916 113.662H318.639V126.873C318.612 128.653 318.974 130.42 319.703 132.046C320.456 133.637 321.625 134.995 323.088 135.978C324.901 137.166 326.919 138.012 329.039 138.474C331.899 139.11 334.823 139.407 337.753 139.358H347.331V151.818H357.624V113.64H347.331V134.198H337.773C334.637 134.198 332.381 133.573 331.008 132.326C329.632 131.079 328.944 129.253 328.947 126.851L328.916 113.662ZM50.5444 151.805H60.8387V113.623H50.5444V129.774H30.7173V113.623H20.3971V151.805H30.7173V134.917H50.5661L50.5444 151.805ZM306.138 132.727C306.188 135.18 305.878 137.628 305.219 139.992C304.726 141.765 303.887 143.425 302.754 144.877C301.793 146.075 300.556 147.022 299.147 147.636C297.749 148.22 296.25 148.52 294.734 148.52C293.22 148.52 291.72 148.22 290.323 147.636C288.917 147.023 287.681 146.079 286.72 144.885C285.587 143.433 284.749 141.773 284.254 140.001C283.584 137.635 283.268 135.185 283.316 132.727C283.263 130.272 283.573 127.823 284.237 125.458C284.728 123.685 285.565 122.026 286.702 120.578C287.663 119.383 288.899 118.437 290.305 117.822C291.703 117.239 293.203 116.939 294.717 116.939C296.232 116.939 297.732 117.239 299.129 117.822C300.537 118.439 301.773 119.384 302.737 120.578C303.871 122.028 304.709 123.686 305.202 125.458C305.864 127.823 306.179 130.272 306.138 132.727ZM315.509 141.535C316.662 138.744 317.225 135.745 317.166 132.727C317.217 129.719 316.654 126.733 315.509 123.949C314.479 121.479 312.908 119.269 310.911 117.482C308.847 115.687 306.43 114.338 303.817 113.519C297.888 111.709 291.551 111.709 285.621 113.519C283.018 114.343 280.613 115.693 278.558 117.486C276.562 119.274 274.991 121.483 273.96 123.954C272.815 126.737 272.252 129.724 272.304 132.732C272.244 135.75 272.808 138.748 273.96 141.54C274.997 143.994 276.567 146.188 278.558 147.964C280.612 149.754 283.013 151.105 285.613 151.931C291.543 153.737 297.879 153.737 303.81 151.931C306.424 151.111 308.839 149.76 310.903 147.964C312.897 146.188 314.47 143.992 315.509 141.535ZM97.2321 132.71C97.2841 135.165 96.9752 137.614 96.3148 139.979C95.8193 141.75 94.9821 143.408 93.8498 144.86C92.8878 146.055 91.6504 147 90.2421 147.615C88.8457 148.196 87.3481 148.495 85.8347 148.495C84.3219 148.495 82.8236 148.196 81.4272 147.615C80.0189 147 78.7815 146.055 77.8201 144.86C76.6859 143.41 75.85 141.752 75.3585 139.979C74.6994 137.614 74.3905 135.164 74.4418 132.71C74.3899 130.257 74.6987 127.809 75.3585 125.445C75.8507 123.672 76.6866 122.012 77.8201 120.56C78.7815 119.365 80.0189 118.42 81.4272 117.805C82.8236 117.224 84.3219 116.926 85.8347 116.926C87.3481 116.926 88.8457 117.224 90.2421 117.805C91.6556 118.419 92.8989 119.364 93.8669 120.56C94.9998 122.013 95.8377 123.672 96.3325 125.445C96.987 127.81 97.29 130.257 97.2321 132.71ZM106.61 141.523C107.762 138.729 108.325 135.73 108.266 132.71C108.323 129.699 107.76 126.708 106.61 123.923C105.582 121.452 104.013 119.242 102.015 117.456C99.9507 115.658 97.5338 114.308 94.9183 113.489C88.9889 111.685 82.6547 111.685 76.7253 113.489C74.1231 114.312 71.7199 115.662 69.667 117.456C67.6693 119.243 66.0987 121.453 65.0689 123.923C63.9248 126.706 63.3611 129.69 63.4124 132.697C63.3508 135.717 63.9148 138.717 65.0689 141.51C66.1079 143.964 67.6778 146.159 69.667 147.938C71.7212 149.729 74.1244 151.078 76.7253 151.9C82.6534 153.711 88.9896 153.711 94.9183 151.9C97.5331 151.082 99.9501 149.734 102.015 147.938C104.001 146.162 105.569 143.971 106.61 141.523ZM372.677 139.707C372.677 135.054 375.496 132.729 381.138 132.732H391.449V146.679H381.138C375.496 146.679 372.677 144.355 372.677 139.707ZM366.392 130.597C363.22 132.609 361.635 135.643 361.635 139.699C361.635 143.755 363.22 146.79 366.392 148.805C369.564 150.817 374.479 151.823 381.138 151.823H401.725V127.58C401.751 125.42 401.308 123.28 400.427 121.306C399.559 119.409 398.261 117.738 396.64 116.421C394.832 114.98 392.758 113.908 390.535 113.265C387.837 112.492 385.038 112.122 382.23 112.166C380.963 112.174 379.696 112.271 378.443 112.459C377.067 112.664 375.705 112.952 374.362 113.322C373.001 113.685 371.664 114.137 370.358 114.675C369.107 115.191 367.913 115.831 366.79 116.585L369.386 120.987C372.976 118.604 377.187 117.322 381.5 117.301C384.442 117.301 386.831 118.131 388.666 119.793C390.504 121.454 391.424 124.041 391.426 127.553H381.149C374.463 127.58 369.544 128.594 366.392 130.597ZM138.777 140.786C138.792 141.573 138.636 142.355 138.319 143.078C138.001 143.8 137.53 144.445 136.939 144.968C135.714 146.093 133.997 146.662 131.791 146.662H120.39V134.913H131.791C133.997 134.913 135.713 135.477 136.939 136.604C137.529 137.127 137.999 137.772 138.317 138.493C138.634 139.216 138.791 139.998 138.777 140.786ZM136.571 124.272C136.564 125.01 136.396 125.736 136.078 126.402C135.761 127.068 135.302 127.657 134.733 128.127C133.507 129.228 131.791 129.778 129.585 129.778H120.398V118.75H129.585C131.791 118.75 133.508 119.297 134.733 120.405C135.306 120.875 135.768 121.466 136.086 122.134C136.403 122.802 136.569 123.533 136.571 124.272ZM147.124 134.948C145.334 133.257 142.676 132.145 139.149 131.611C142.09 131.223 144.235 130.36 145.585 129.024C146.233 128.41 146.748 127.669 147.095 126.848C147.442 126.026 147.616 125.142 147.605 124.251C147.607 122.801 147.241 121.374 146.541 120.103C145.749 118.726 144.625 117.567 143.271 116.732C141.545 115.67 139.656 114.901 137.678 114.455C135.028 113.844 132.314 113.554 129.594 113.593H110.108V151.776H131.795C134.517 151.816 137.233 151.527 139.884 150.913C141.865 150.467 143.756 149.685 145.472 148.602C146.842 147.734 147.968 146.532 148.742 145.11C149.455 143.766 149.822 142.267 149.811 140.747C149.802 138.57 148.907 136.638 147.124 134.948ZM178.851 139.319C178.851 141.721 178.237 143.54 177.013 144.795C175.788 146.049 174.071 146.666 171.865 146.666H162.306V131.982H171.865C174.071 131.982 175.787 132.605 177.013 133.853C178.237 135.099 178.851 136.927 178.851 139.319ZM189.88 139.319C189.88 135.45 188.448 132.404 185.581 130.179C182.715 127.954 178.143 126.842 171.865 126.842H162.306V113.627H152.012V151.81H171.865C178.137 151.81 182.709 150.697 185.581 148.473C188.453 146.248 189.889 143.197 189.889 139.319H189.88ZM195.395 151.823H205.694V113.623H195.395V151.823ZM250.128 103.862V103.086H224.241C219.483 103.086 215.612 105.785 215.612 109.122V109.898H241.499C246.261 109.894 250.128 107.195 250.128 103.862ZM253.471 151.805V113.623H240.244L223.333 142.256H222.597V113.623H212.307V151.805H225.538L242.45 123.169H243.186V151.805H253.471Z" fill="black"/>
</g>
</g>
<defs>
<clipPath id="clip0_38_73">
<rect width="460" height="262.857" fill="white" transform="translate(0 0.571289)"/>
</clipPath>
</defs>
</svg>
