<?xml version="1.0" encoding="UTF-8"?> <svg xmlns="http://www.w3.org/2000/svg" width="24" height="24" viewBox="0 0 24 24" fill="none"><path d="M12 2C6.47708 2 2 6.47708 2 12C2 17.5229 6.47708 22 12 22C17.5229 22 22 17.5229 22 12C22 6.47708 17.5229 2 12 2ZM12.6844 14.3698C12.0427 14.3208 11.774 14.0031 11.2719 13.699C10.9958 15.1479 10.6583 16.5375 9.65833 17.2635C9.34896 15.0719 10.1104 13.4281 10.4646 11.6813C9.86146 10.6656 10.5365 8.62292 11.8094 9.125C13.375 9.74583 10.4531 12.901 12.4146 13.2958C14.4625 13.7063 15.299 9.74167 14.0292 8.45417C12.1938 6.59271 8.68854 8.41146 9.11979 11.076C9.22396 11.7271 9.89792 11.925 9.38854 12.824C8.21458 12.5635 7.86354 11.6375 7.90937 10.4031C7.98125 8.38229 9.725 6.96667 11.4729 6.77187C13.6844 6.52604 15.7594 7.58333 16.0469 9.66458C16.3687 12.0125 15.0479 14.5531 12.6844 14.3698Z" fill="white"></path></svg> 