<svg width="460" height="263" viewBox="0 0 460 263" fill="none" xmlns="http://www.w3.org/2000/svg">
<g clip-path="url(#clip0_38_118)">
<path d="M460 0.142578H0V263H460V0.142578Z" fill="white"/>
<mask id="mask0_38_118" style="mask-type:luminance" maskUnits="userSpaceOnUse" x="23" y="71" width="414" height="121">
<path d="M437 71.1143H23V191.371H437V71.1143Z" fill="white"/>
</mask>
<g mask="url(#mask0_38_118)">
<path d="M129.436 76.3067C128.412 79.1915 121.111 100.003 113.187 122.591L98.764 163.638L92.7098 163.77L86.6555 163.904V164.969V166.078H100.901H115.146V164.969V163.859H108.246C102.993 163.859 101.346 163.726 101.391 163.283C101.391 163.016 103.438 156.937 105.976 149.881L110.516 137.012L125.429 136.879L140.342 136.79L144.66 150.058C147.019 157.336 148.978 163.46 148.978 163.593C148.978 163.726 146.263 163.859 142.969 163.859H136.959V164.969V166.078H156.323H175.688V164.969C175.688 163.904 175.643 163.904 171.192 163.77L166.696 163.638L150.625 117.354L134.599 71.1152H132.953H131.261L129.436 76.3067ZM132.953 113.937C136.425 124.676 139.407 133.684 139.496 133.995C139.674 134.439 136.87 134.572 125.652 134.572C117.906 134.572 111.585 134.439 111.585 134.217C111.585 133.906 122.803 101.778 125.029 95.8317C125.652 94.1014 126.097 93.4357 126.319 93.8353C126.497 94.1455 129.48 103.198 132.953 113.937Z" fill="#083F88"/>
<path d="M47.3949 72.0018C40.851 72.8003 35.1084 75.5517 30.8349 79.9894C25.0923 85.8912 23.1781 93.2131 25.0032 101.955C26.2942 108.168 29.811 113.182 35.9987 117.753C39.2929 120.193 41.1626 121.169 56.8323 128.713C65.2013 132.751 68.9409 135.325 71.2113 138.653C73.437 142.026 73.8819 143.801 73.6591 148.549C73.4811 151.922 73.1696 153.208 72.057 155.605C68.9409 162.261 62.7974 165.634 53.7161 165.634C48.2407 165.634 44.2342 164.746 40.3168 162.705C33.9955 159.377 29.4549 153.43 26.5168 144.6C25.1813 140.606 24.6916 139.63 23.9349 139.541C23 139.408 23 139.452 23 153.386V167.408L24.0239 167.364C24.6916 167.364 26.1607 166.033 28.5645 163.415L32.0813 159.51L34.5297 161.507C40.7619 166.565 49.22 168.785 58.6129 167.808C71.1666 166.521 80.0249 159.643 83.3638 148.549C84.477 144.866 84.477 135.902 83.3638 132.13C82.0285 127.604 79.58 123.521 76.197 120.105C71.5668 115.445 66.3143 112.161 55.9419 107.502C45.08 102.576 39.9161 99.0262 37.3342 94.6772C36.2658 92.8582 36.1323 92.1926 36.1323 88.6427C36.1323 85.1808 36.3103 84.3377 37.3787 82.1192C38.8923 79.1016 41.8303 76.3502 44.7239 75.3296C45.8813 74.9307 48.6413 74.4865 50.8226 74.3538C61.2393 73.7768 69.297 78.5246 73.8819 87.977C74.9951 90.2842 76.2857 93.7454 76.6866 95.609C77.3989 98.7154 77.6211 99.0709 78.5115 99.0709H79.5353V85.3142C79.5353 72.4454 79.4913 71.5576 78.7343 71.5576C78.3334 71.5576 76.2857 73.2438 74.1934 75.3296L70.4543 79.0576L68.7181 77.4601C64.1774 73.3772 55.2297 71.114 47.3949 72.0018Z" fill="#083F88"/>
<path d="M296.552 72.0461C284.444 73.3328 273.893 80.4773 267.394 91.7933C261.919 101.29 259.426 113.981 260.672 126.007C262.987 148.505 275.852 164.125 294.549 167.009C298.778 167.675 307.637 167.276 311.465 166.299C327.669 162.039 338.798 147.662 341.335 127.648C342.047 121.969 341.603 111.584 340.445 106.614C338.041 96.1863 333.857 88.5095 326.957 81.9421C318.944 74.2653 308.305 70.8035 296.552 72.0461ZM307.815 75.1971C314.715 77.7705 320.146 86.8673 322.327 99.426C324.731 113.582 324.241 134.793 321.214 146.197C318.009 158.357 311.866 164.613 302.651 165.102C293.703 165.59 287.871 162.084 283.687 153.786C278.835 144.068 276.965 123.211 279.235 104.13C280.571 92.8138 283.999 83.761 288.717 79.1019C290.097 77.7265 292.101 76.173 293.213 75.6407C297.353 73.6883 303.185 73.5109 307.815 75.1971Z" fill="#083F88"/>
<path d="M184.149 73.9999V75.1091H189.713H195.278V119.485V163.86H189.713H184.149V164.969V166.079H218.426H252.704V151.656V137.235H251.635C250.656 137.235 250.523 137.456 250.255 139.764C249.143 150.281 247.228 155.251 242.91 159.156C238.503 163.105 235.12 163.86 221.453 163.86H210.859V119.485V75.1091H216.201H221.543V73.9999V72.8906H202.846H184.149V73.9999Z" fill="#083F88"/>
<path d="M349.302 73.9989V75.1088H355.535H361.767V119.484V163.859H355.535H349.302V164.968V166.078H363.77H378.238V164.968V163.859H371.115H363.993V120.771V77.6382L392.75 121.969C408.598 146.375 421.641 166.566 421.73 166.832C421.863 167.143 422.442 167.409 423.021 167.409H424.089V121.259V75.1088H430.544H436.999V73.9989V72.8896H422.309H407.618V73.9989V75.1088H414.741H421.863L421.819 107.369C421.819 137.899 421.775 139.63 421.062 138.61C420.661 137.988 411.135 123.034 399.961 105.328L379.662 73.1118L364.482 72.9784L349.302 72.8896V73.9989Z" fill="#083F88"/>
<path d="M174.353 188.266C174.353 191.061 174.443 191.372 175.244 191.372C176.045 191.372 176.134 191.061 176.134 188.266C176.134 185.47 176.045 185.159 175.244 185.159C174.443 185.159 174.353 185.47 174.353 188.266Z" fill="#083F88"/>
<path d="M186.818 188.266C186.818 191.061 186.908 191.372 187.664 191.372C188.332 191.372 188.599 191.017 188.688 189.908L188.821 188.488L189.712 189.952C190.291 190.928 190.87 191.372 191.493 191.283C192.294 191.15 192.383 190.84 192.383 188.266C192.383 185.691 192.294 185.381 191.493 185.381C190.87 185.381 190.558 185.736 190.38 186.624L190.157 187.866L189.356 186.535C188.911 185.736 188.198 185.159 187.664 185.159C186.908 185.159 186.818 185.47 186.818 188.266Z" fill="#083F88"/>
<path d="M202.4 185.825C202.4 186.18 202.801 186.491 203.29 186.491C204.092 186.491 204.181 186.801 204.181 188.931C204.181 191.061 204.27 191.372 205.071 191.372C205.828 191.372 205.961 191.061 205.961 189.109C205.961 187.245 206.095 186.801 206.852 186.624C207.341 186.491 207.742 186.091 207.742 185.781C207.742 185.337 207.03 185.159 205.071 185.159C202.979 185.159 202.4 185.293 202.4 185.825Z" fill="#083F88"/>
<path d="M217.981 188.266V191.372H220.43C222.255 191.372 222.878 191.194 222.878 190.751C222.878 190.351 222.344 190.04 221.454 189.952C219.762 189.774 219.673 188.976 221.32 188.798C222.967 188.576 222.744 187.378 221.053 187.378C220.297 187.378 219.806 187.2 219.984 186.934C220.118 186.668 220.83 186.491 221.587 186.491C222.433 186.491 222.878 186.268 222.878 185.825C222.878 185.293 222.3 185.159 220.43 185.159H217.981V188.266Z" fill="#083F88"/>
<path d="M233.116 188.266C233.116 191.061 233.206 191.372 234.007 191.372C234.674 191.372 234.897 191.061 234.897 190.218C234.897 188.754 236.366 188.887 236.589 190.395C236.678 191.017 237.033 191.372 237.568 191.372C238.28 191.372 238.413 191.017 238.369 188.709C238.325 185.603 237.88 185.159 234.942 185.159H233.116V188.266ZM236.589 187.289C236.678 187.6 236.322 187.822 235.832 187.822C234.897 187.822 234.63 187.334 235.209 186.757C235.609 186.357 236.366 186.668 236.589 187.289Z" fill="#083F88"/>
<path d="M248.874 185.736C248.74 186.091 248.696 187.467 248.785 188.754C248.918 190.795 249.053 191.15 249.809 191.15C250.611 191.15 250.699 190.839 250.699 188.266C250.699 185.869 250.566 185.381 249.898 185.248C249.497 185.159 249.008 185.381 248.874 185.736Z" fill="#083F88"/>
<path d="M261.651 186.313C261.117 186.979 260.716 187.822 260.716 188.266C260.716 189.597 262.452 191.372 263.788 191.372C265.791 191.372 266.949 190.218 266.949 188.266C266.949 186.979 266.682 186.357 265.969 185.87C264.456 184.805 262.72 184.982 261.651 186.313ZM264.901 187.511C265.257 188.044 265.257 188.488 264.901 189.02C264.189 190.129 263.209 189.997 263.031 188.798C262.72 186.579 263.832 185.825 264.901 187.511Z" fill="#083F88"/>
<path d="M277.186 188.266C277.186 191.061 277.275 191.372 278.077 191.372C278.744 191.372 278.966 191.061 278.966 190.263C278.966 188.798 280.614 188.709 280.837 190.129C280.925 190.795 281.326 191.194 282.039 191.283C282.706 191.416 282.973 191.283 282.75 190.928C282.572 190.662 282.439 189.463 282.439 188.221C282.483 185.691 281.86 185.159 279.011 185.159H277.186V188.266ZM280.658 187.289C280.747 187.6 280.391 187.822 279.901 187.822C278.966 187.822 278.7 187.334 279.279 186.757C279.679 186.357 280.436 186.668 280.658 187.289Z" fill="#083F88"/>
</g>
</g>
<defs>
<clipPath id="clip0_38_118">
<rect width="460" height="262.857" fill="white" transform="translate(0 0.142578)"/>
</clipPath>
</defs>
</svg>
