<?xml version="1.0" encoding="UTF-8"?> <svg xmlns="http://www.w3.org/2000/svg" width="24" height="24" viewBox="0 0 24 24" fill="none"><path d="M11.9961 2C6.47318 2 1.99609 6.47708 1.99609 12C1.99609 17.5229 6.47318 22 11.9961 22C17.519 22 21.9961 17.5229 21.9961 12C21.9961 6.47708 17.519 2 11.9961 2ZM15.8419 13.2823C15.8419 13.2823 16.7263 14.1552 16.944 14.5604C16.9503 14.5688 16.9534 14.5771 16.9555 14.5812C17.044 14.7302 17.0648 14.8458 17.0211 14.9323C16.9482 15.076 16.6982 15.1469 16.6128 15.1531H15.0503C14.9419 15.1531 14.7148 15.125 14.4398 14.9354C14.2284 14.7875 14.0201 14.5448 13.8169 14.3083C13.5138 13.9562 13.2513 13.6521 12.9867 13.6521C12.9531 13.652 12.9197 13.6573 12.8878 13.6677C12.6878 13.7323 12.4315 14.0177 12.4315 14.7781C12.4315 15.0156 12.244 15.1521 12.1117 15.1521H11.3961C11.1523 15.1521 9.88255 15.0667 8.75755 13.8802C7.38047 12.4271 6.14089 9.5125 6.13047 9.48542C6.05234 9.29687 6.2138 9.19583 6.38984 9.19583H7.96797C8.17838 9.19583 8.24714 9.32396 8.29505 9.4375C8.3513 9.56979 8.55755 10.0958 8.89609 10.6875C9.44505 11.6521 9.78151 12.0437 10.0513 12.0437C10.1019 12.0432 10.1516 12.0303 10.1961 12.0062C10.5482 11.8104 10.4826 10.5552 10.4669 10.2948C10.4669 10.2458 10.4659 9.73333 10.2857 9.4875C10.1565 9.30937 9.93672 9.24167 9.80338 9.21667C9.85735 9.1422 9.92845 9.08182 10.0107 9.04062C10.2523 8.91979 10.6878 8.90208 11.1201 8.90208H11.3607C11.8294 8.90833 11.9503 8.93854 12.1201 8.98125C12.4638 9.06354 12.4711 9.28542 12.4409 10.0448C12.4315 10.2604 12.4221 10.5042 12.4221 10.7917C12.4221 10.8542 12.419 10.9208 12.419 10.9917C12.4086 11.3781 12.3961 11.8167 12.669 11.9969C12.7046 12.0192 12.7457 12.0311 12.7878 12.0312C12.8826 12.0312 13.168 12.0312 13.9409 10.7052C14.1793 10.2784 14.3864 9.83487 14.5607 9.37812C14.5763 9.35104 14.6221 9.26771 14.6763 9.23542C14.7163 9.21504 14.7606 9.20467 14.8055 9.20521H16.6607C16.8628 9.20521 17.0013 9.23542 17.0273 9.31354C17.0732 9.4375 17.019 9.81562 16.1721 10.9625L15.794 11.4615C15.0263 12.4677 15.0263 12.5188 15.8419 13.2823Z" fill="white"></path></svg> 