<?xml version="1.0" encoding="UTF-8"?> <svg xmlns="http://www.w3.org/2000/svg" width="24" height="24" viewBox="0 0 24 24" fill="none"><path fill-rule="evenodd" clip-rule="evenodd" d="M22 11C22 16.5228 17.5228 21 12 21C6.47715 21 2 16.5228 2 11C2 5.47715 6.47715 1 12 1C17.5228 1 22 5.47715 22 11ZM15.6965 6.61717C14.7087 5.7746 13.4473 5.3215 12.1491 5.34289C10.8509 5.36428 9.60514 5.8587 8.64559 6.73336C7.68605 7.60802 7.07868 8.80279 6.93748 10.0935C6.79628 11.3841 7.13095 12.682 7.87868 13.7434C8.01253 13.9334 8.03772 14.1794 7.94515 14.3926L7.34036 15.7854L9.48269 15.4036C9.62198 15.3788 9.76556 15.399 9.89264 15.4612C11.0587 16.0321 12.3931 16.1579 13.6453 15.8149C14.8976 15.4718 15.9816 14.6836 16.6939 13.5981C17.4063 12.5126 17.698 11.2045 17.5144 9.91917C17.3307 8.63385 16.6843 7.45974 15.6965 6.61717ZM12.1271 4.0103C13.7499 3.98356 15.3266 4.54995 16.5614 5.60316C17.7962 6.65637 18.6042 8.12401 18.8337 9.73065C19.0633 11.3373 18.6986 12.9725 17.8082 14.3294C16.9178 15.6862 15.5627 16.6715 13.9974 17.1003C12.5039 17.5094 10.9169 17.385 9.50835 16.7528L6.35129 17.3155C6.10958 17.3585 5.86376 17.2652 5.71154 17.0726C5.55931 16.8799 5.52534 16.6192 5.62313 16.394L6.57869 14.1933C5.79247 12.9296 5.44997 11.4353 5.61262 9.94851C5.78912 8.33518 6.54833 6.84172 7.74776 5.74839C8.94719 4.65507 10.5044 4.03704 12.1271 4.0103ZM10.5676 7.6637C10.3025 7.6637 10.0482 7.76901 9.86076 7.95646C9.6733 8.14392 9.56799 8.39817 9.56799 8.66327V9.32965C9.56799 10.3901 9.98924 11.407 10.7391 12.1569C11.4889 12.9067 12.5059 13.3279 13.5663 13.3279H14.2327C14.4978 13.3279 14.752 13.2226 14.9395 13.0352C15.1269 12.8477 15.2322 12.5935 15.2322 12.3284C15.2322 12.0633 15.1269 11.809 14.9395 11.6216C14.752 11.4341 14.4978 11.3288 14.2327 11.3288H13.5663C13.3012 11.3288 13.0469 11.4341 12.8595 11.6216C12.7921 11.689 12.7353 11.765 12.6902 11.8471C12.3141 11.7162 11.9684 11.5014 11.6815 11.2145C11.3945 10.9275 11.1797 10.5819 11.0488 10.2057C11.1309 10.1606 11.207 10.1039 11.2744 10.0365C11.4618 9.849 11.5671 9.59475 11.5671 9.32965V8.66327C11.5671 8.39817 11.4618 8.14392 11.2744 7.95646C11.0869 7.76901 10.8327 7.6637 10.5676 7.6637Z" fill="white"></path></svg> 