<?xml version="1.0" encoding="UTF-8"?> <svg xmlns="http://www.w3.org/2000/svg" width="24" height="24" viewBox="0 0 24 24" fill="none"><path d="M13.6659 11.826L11.3263 10.7344C11.1221 10.6396 10.9544 10.7458 10.9544 10.9719V13.0281C10.9544 13.2542 11.1221 13.3604 11.3263 13.2656L13.6648 12.174C13.8701 12.0781 13.8701 11.9219 13.6659 11.826ZM11.9961 2C6.47318 2 1.99609 6.47708 1.99609 12C1.99609 17.5229 6.47318 22 11.9961 22C17.519 22 21.9961 17.5229 21.9961 12C21.9961 6.47708 17.519 2 11.9961 2ZM11.9961 16.0625C6.87734 16.0625 6.78776 15.601 6.78776 12C6.78776 8.39896 6.87734 7.9375 11.9961 7.9375C17.1148 7.9375 17.2044 8.39896 17.2044 12C17.2044 15.601 17.1148 16.0625 11.9961 16.0625Z" fill="white"></path></svg> 