<svg width="460" height="264" fill="none" xmlns="http://www.w3.org/2000/svg"><g clip-path="url(#a)"><path d="M460 .714H0V263.57h460V.714Z" fill="#fff"/><path d="M242.356 45.707c-1.474.788-3.153 2.947-3.701 4.763-.343 1.131-.274 1.508.445 3.119.925 1.987 2.365 3.632 3.633 4.112 1.371.514 3.803.342 5.243-.377 1.507-.788 3.221-2.947 3.701-4.66.444-1.645-.069-3.187-1.68-5.004-2.33-2.672-5.003-3.358-7.641-1.953ZM259.936 51.566v4.043H384.94l.24-2.912c.274-3.358.034-4.935-.788-5.003-.308-.035-28.441-.069-62.502-.103l-61.954-.034v4.009Z" fill="#EC1C24"/><path d="M200.724 65.032c-5.037 1.165-9.149 3.359-11.822 6.34-2.022 2.227-3.084 4.249-4.01 7.572-.925 3.358-.856 5.243.206 8.259 1.405 3.871 2.982 5.894 6.477 8.155 2.603 1.68 5.311 2.707 12.472 4.66 12.679 3.496 16.825 6.34 17.682 12.165 1.302 8.841-12.815 14.769-23.096 9.697-3.084-1.507-5.414-3.769-6.544-6.236-.446-.96-.96-1.782-1.165-1.782-.206.034-1.851.377-3.633.788l-3.255.788.103 1.131c.034.651.719 2.364 1.473 3.838 1.85 3.529 5.757 7.299 9.355 9.046 12.268 5.894 28.715 1.371 33.821-9.32 1.953-4.112 1.953-9.8.034-13.981-1.918-4.078-7.059-8.464-12.575-10.794-1.371-.548-5.484-1.884-9.116-2.913-3.666-1.062-7.675-2.398-8.908-2.98-5.072-2.297-6.58-5.963-4.319-10.52 1.919-3.804 6.34-6.031 12.062-5.997 6.854.034 11.137 2.638 13.775 8.292.755 1.577.96 1.817 1.611 1.611.377-.103 1.885-.514 3.29-.891 1.405-.342 2.706-.823 2.878-.994.411-.411-.891-4.352-2.125-6.476-2.227-3.804-6.544-6.99-11.89-8.807-3.392-1.13-9.32-1.439-12.781-.65ZM287.352 65.17c-3.701.822-5.757 1.542-8.738 3.05-9.321 4.66-15.797 12.987-18.23 23.438-.788 3.46-.788 9.903.035 13.467 2.432 10.725 9.594 19.565 19.531 24.157 4.626 2.159 6.751 2.571 13.399 2.571 6.819 0 9.594-.583 14.802-3.084 8.19-3.975 14.392-10.897 17.271-19.327.651-1.85 2.022-8.43 2.022-9.663 0-.651-.343-.651-14.221-.651h-14.22v8.224h9.252c5.105 0 9.251.103 9.251.205 0 .138-.719 1.474-1.61 3.016-3.324 5.654-8.635 9.971-15.009 12.096-2.433.822-3.255.925-7.196.925-4.934 0-7.504-.548-10.862-2.193-6.237-3.084-10.417-7.676-13.193-14.461-.788-1.884-.891-2.775-1.062-7.298-.171-6.237.103-7.744 2.399-12.507 1.507-3.119 2.124-3.941 4.865-6.682 2.639-2.639 3.632-3.393 6.374-4.729 4.352-2.159 6.888-2.776 11.308-2.776 2.741 0 4.249.172 6.339.754 5.586 1.61 10.383 4.695 13.364 8.567.72.994 1.508 1.782 1.748 1.782.479 0 6.442-4.01 6.579-4.42.137-.412-2.844-3.907-4.935-5.86-3.735-3.461-9.903-6.853-15.042-8.224-3.941-1.063-10.315-1.234-14.221-.377ZM63.589 98.27v32.074l12.096-.103c11.308-.136 12.233-.205 14.631-.925 9.287-2.775 17.305-9.903 20.834-18.504 2.331-5.722 3.153-13.775 1.851-18.538a78.613 78.613 0 0 1-.925-3.838c-.103-.72-.891-2.638-1.713-4.283-4.112-8.19-11.788-14.324-20.903-16.79-3.324-.857-3.803-.892-14.632-1.063l-11.24-.137v32.108Zm21.588-23.335c3.838.617 6.339 1.611 9.423 3.667 4.729 3.187 8.327 8.018 9.595 12.953.377 1.473.548 3.7.582 7.195 0 4.284-.103 5.312-.72 7.025-1.336 3.701-3.084 6.408-6.168 9.458-2.364 2.364-3.53 3.22-5.962 4.385-4.18 2.057-6.408 2.468-13.843 2.468h-6.271v-47.63h5.242c2.844 0 6.511.205 8.122.48ZM124.205 66.472c0 .172-.035 1.817 0 3.701 0 1.885.034 16.174.034 31.799v28.339l24.604-.068 24.568-.103v-7.882l-20.285-.103-20.32-.068v-19.875h36.356l-.102-4.009-.103-4.01-.857-.033c-.479-.034-8.6-.069-18.058-.103l-17.236-.068V74.525l6.613-.24c3.598-.102 12.679-.17 20.149-.102l13.569.102.206-3.769c.103-2.09.103-3.872 0-4.044-.206-.308-49.104-.308-49.138 0Z" fill="#000"/><path d="M240.746 139.871v73.639l3.186.24c1.713.137 3.632.171 4.181.102l1.028-.102.102-73.776.069-73.742h-8.566v73.639Z" fill="#EC1C24"/><path d="M335.661 87.923c0 11.959.103 26.351.24 32.039l.206 10.349H344.228v-24.192c0-14.118.137-24.09.309-23.987.171.103 3.494 5.037 7.367 10.897 3.906 5.893 11.033 16.688 15.865 23.986l8.773 13.296H385.005V66.232h-8.567l-.068 24.227-.103 24.26-6.373-9.594c-3.495-5.277-10.486-15.831-15.523-23.472-5.071-7.642-9.492-14.221-9.903-14.666-.651-.686-.994-.755-4.763-.755h-4.044v21.691ZM267.576 149.397l-3.872.137v63.976l2.844.239c1.543.138 3.427.172 4.181.103l1.37-.103.172-23.78c.171-21.931.205-23.713.719-23.13.549.617 2.674 4.043 10.417 16.756 6.066 9.937 9.869 15.934 10.143 15.934.172 0 .48-.343.686-.788.205-.411 1.679-2.776 3.221-5.209 1.542-2.467 5.071-8.155 7.881-12.679 2.81-4.523 6.1-9.765 7.333-11.65l2.261-3.426.104 23.883.068 23.85 2.502.239c1.336.138 3.255.172 4.18.103l1.713-.103v-64.078l-4.146-.103-4.147-.102-1.541 2.33c-.857 1.268-4.592 7.264-8.327 13.295-8.43 13.604-11.89 19.086-11.993 18.95-.069-.069-2.262-3.667-4.935-8.053-8.189-13.57-16.687-27.002-16.927-26.762-.034.034-1.817.137-3.907.171ZM184.106 149.739c-.137.103-.239 1.885-.239 3.941v3.701h19.189l.034 22.855c0 19.841.171 32.999.411 33.204.035.034 1.714.138 3.701.206l3.632.103.24-3.769c.103-2.091.206-14.769.206-28.201v-24.398h18.846v-7.882h-22.889c-12.611 0-23.028.103-23.131.24ZM335.941 151.041c-.171 1.474.034 62.262.206 62.434.171.205 45.711.377 47.254.205l1.61-.171V205.696h-19.6c-10.794 0-19.978-.103-20.389-.206l-.788-.205v-19.806h36.288l.205-1.473c.104-.789.172-2.536.104-3.839l-.104-2.398-18.263-.103-18.23-.068.069-9.869.102-9.835 20.32-.102 20.286-.069v-8.224H336.113l-.172 1.542Z" fill="#000"/></g><defs><clipPath id="a"><path fill="#fff" transform="translate(0 .714)" d="M0 0h460v262.857H0z"/></clipPath></defs></svg>