<svg width="460" height="264" fill="none" xmlns="http://www.w3.org/2000/svg"><g clip-path="url(#a)"><path d="M460 .429H0v262.857h460V.429Z" fill="#fff"/><path d="M50.826 77.457c-.216.505-.433 9.599-.65 20.209-.144 10.681-.432 19.486-.649 19.776-.216.216-1.66-.217-3.248-1.011-4.186-2.093-6.423-2.454-9.094-1.299-3.753 1.516-5.99 4.475-7.867 10.104-2.165 6.64-2.31 20.064-.288 26.777 3.175 10.826 10.681 14.868 17.177 9.311 2.238-1.877 2.31-1.877 2.96-.433.649 1.515 2.598 2.165 5.268 1.732 1.444-.217 1.516-.65 1.877-18.405.144-10.032.144-29.23-.073-42.727l-.433-24.54-2.381-.216c-1.444-.144-2.454.144-2.599.722Zm-3.248 47.924 2.454 2.526.217 9.888c.289 11.692-.433 14.795-4.114 17.25-3.031 2.093-3.609 2.093-6.64 0-3.464-2.31-5.124-7.507-5.124-16.384 0-10.321 2.814-15.879 8.083-15.879 2.021 0 3.176.578 5.124 2.599Z" fill="#000"/><path d="M301.345 77.024c-.289.289-.506 8.878-.506 19.054v18.549l-2.815.505c-2.887.433-3.68 1.444-3.68 4.403 0 1.66 1.587 2.526 4.835 2.526h1.66l.144 20.353.217 20.425h6.496l.216-20.425.145-20.353h2.237c2.959 0 4.763-1.082 6.062-3.608 1.733-3.321 1.444-3.609-3.608-3.609h-4.691l-.145-18.982-.216-18.91-2.887-.217c-1.66-.144-3.176 0-3.464.29Z" fill="#8F0D3B"/><path d="M146.749 93.335c.288.938.866 3.031 1.299 4.691.938 3.609 1.732 3.97 2.381 1.083.217-1.083.722-2.887 1.083-4.042 1.011-3.175.866-3.32-2.31-3.32-2.742 0-2.959.145-2.453 1.588ZM181.39 114.771c-3.321 1.588-5.486 4.547-7.723 10.61-1.299 3.536-1.588 5.774-1.588 13.28 0 15.662 3.681 23.457 11.981 25.261 3.392.794 4.186.722 7.362-.65l3.536-1.587-.433 6.784c-.289 3.753-.866 7.723-1.371 8.805-.938 2.166-3.97 3.97-6.568 3.97-2.309 0-5.413-2.454-5.702-4.547-.36-2.599-1.516-1.804-2.887 1.876-1.01 2.671-1.155 3.826-.505 4.908 1.949 3.754 12.414 4.836 17.61 1.877 3.537-1.949 5.342-5.413 6.208-11.909.649-5.485.866-55.718.216-57.451-.505-1.371-2.382-1.443-6.134-.36-2.383.721-2.96.649-4.692-.723-2.382-1.876-5.485-1.948-9.31-.144Zm10.32 9.744 2.671 2.454v11.908c0 11.043-.145 12.126-1.516 14.002-.866 1.083-2.742 2.454-4.186 3.032-2.454.938-2.815.866-4.619-.434-3.465-2.453-4.835-6.279-5.052-14.217-.361-9.312.217-12.92 2.526-15.663 3.536-4.186 6.423-4.474 10.176-1.082ZM228.885 114.121c-1.299.29-2.888.939-3.465 1.444-.866.722-1.516.722-2.743.145-.866-.433-2.886-.939-4.474-1.011l-2.888-.216-.216 23.745c-.072 13.136.073 24.034.361 24.251.361.288 1.948.36 3.609.216l2.959-.361.289-17.033c.216-15.734.36-17.322 1.732-19.632 1.876-3.247 5.918-4.835 8.805-3.392 3.897 1.805 4.475 4.764 4.98 23.602l.433 17.177 2.96-.144 2.959-.145.216-12.991c.433-26.633-1.949-34.572-10.682-35.871-1.371-.217-3.608-.072-4.835.216Z" fill="#000"/><path d="M336.997 114.915c-6.567 3.32-10.032 13.136-9.238 26.2.217 4.041 1.011 9.093 1.66 11.259 3.32 11.187 16.817 15.3 24.468 7.434 4.113-4.258 5.773-10.394 5.773-21.148-.072-17.249-4.474-24.394-15.445-25.116-3.103-.144-4.763.144-7.218 1.371Zm10.611 9.022c3.319 2.309 4.113 5.052 4.113 14.723 0 7.94-.217 9.455-1.66 12.342-3.392 7.001-10.609 6.641-13.785-.721-2.959-7.001-1.66-21.22 2.382-25.55 2.093-2.31 6.351-2.671 8.95-.794Z" fill="#8F0D3B"/><path d="M82.37 114.771c-6.28 1.589-10.394 7.868-11.765 18.116-1.733 12.27 1.804 25.045 8.01 29.448.867.577 3.105 1.371 4.91 1.732 2.958.505 3.824.361 7.65-1.588 2.381-1.155 4.98-3.031 5.701-4.114l1.371-1.876-1.948-1.732c-2.382-2.022-4.258-2.093-6.784-.361-3.176 2.164-4.548 2.454-6.424 1.154-2.887-1.876-4.691-7.001-5.124-14.362-.433-7.94.938-13.497 3.97-16.384 2.959-2.743 4.618-3.031 7.505-1.083 4.042 2.743 3.681 4.475-2.237 10.177-2.742 2.67-5.052 5.196-5.052 5.485 0 1.299 3.825 5.052 5.052 5.052.794 0 3.753-2.742 7.145-6.568 6.857-7.722 7.217-9.382 3.681-15.589-3.537-6.135-9.6-9.022-15.662-7.507ZM120.042 117.153c-3.321 3.826-6.136 9.599-6.136 12.487 0 2.742 1.949 7 5.341 11.692 5.053 7.073 4.908 9.599-.938 14.868-1.66 1.443-2.959 2.887-2.959 3.176 0 .721 4.259 5.269 4.908 5.269.288 0 2.165-1.733 4.186-3.826 8.516-8.878 8.661-12.198.794-23.889-1.877-2.816-3.393-5.63-3.393-6.352 0-2.093 1.733-4.98 4.619-7.723 1.444-1.371 2.599-3.103 2.599-3.753 0-1.299-4.186-4.98-5.629-4.98-.433 0-1.949 1.372-3.392 3.031Z" fill="#000"/><path d="M270.812 116.432c-3.031 2.67-6.784 9.96-6.784 13.208.072 2.814 1.876 6.856 5.99 12.847 1.877 2.742 3.392 5.485 3.392 6.134 0 1.877-2.526 5.558-5.34 7.795-1.444 1.155-2.599 2.527-2.599 3.104 0 1.01 4.114 5.125 5.125 5.125 1.299 0 7.217-6.713 8.949-10.033 2.887-5.846 2.599-7.434-3.825-17.178-4.691-7.145-4.619-8.444.722-14.29l3.609-3.97-2.526-2.526c-1.372-1.371-2.888-2.526-3.321-2.526-.433 0-1.948 1.083-3.392 2.31Z" fill="#8F0D3B"/><path d="M146.166 115.348c-.721.65-.649 46.986.073 47.347.288.144 1.876.144 3.608-.073l3.031-.288v-47.491h-3.103c-1.732 0-3.392.217-3.609.505Z" fill="#000"/><path d="M373.377 116.431c-.216.938-.288 11.692-.216 24.034l.216 22.374h6.496l.361-17.322c.217-11.187.65-17.827 1.227-18.765.433-.794 2.093-2.238 3.681-3.248 3.175-1.949 5.196-4.763 5.196-7.145 0-2.382-2.381-1.877-6.207 1.371-1.804 1.66-3.68 2.815-4.186 2.671-.722-.216-.722-1.011-.216-4.475.072-.433-1.227-.794-2.887-.938-2.671-.217-3.104 0-3.465 1.443ZM400.441 115.998c0 1.372 3.32 14.652 7.651 30.314 5.413 19.559 5.196 17.105 2.526 26.776-1.227 4.692-2.382 9.455-2.454 10.682-.145 2.021 0 2.165 2.381 2.165 2.383 0 2.527-.144 3.826-4.33 4.259-13.713 17.827-62.142 18.043-64.091.145-2.237.073-2.309-2.959-2.526-2.02-.144-3.175.072-3.32.722-.216.505-2.02 7.29-4.042 15.012-4.041 15.59-5.773 21.219-6.279 20.714-.144-.217-.938-3.104-1.732-6.351-.794-3.32-2.67-10.61-4.258-16.167-1.516-5.558-2.959-10.971-3.175-12.126-.434-1.732-.795-1.948-3.321-1.948-2.165 0-2.887.288-2.887 1.154Z" fill="#8F0D3B"/></g><defs><clipPath id="a"><path fill="#fff" transform="translate(0 .429)" d="M0 0h460v262.857H0z"/></clipPath></defs></svg>