<svg width="460" height="263" fill="none" xmlns="http://www.w3.org/2000/svg"><g clip-path="url(#a)"><path d="M460 0H0v262.857h460V0Z" fill="#fff"/><path d="M372.602 146.457v-13.405c0-6.769 1.051-7.886 7.754-7.886 3.746 0 7.426-.066 11.172 0 4.271.131 5.783 1.511 5.783 5.783.131 12.551.46 25.168-3.943 37.326-1.972 5.322-.263 7.162 5.454 7.36 3.746.131 5.126 1.511 5.126 5.257 0 5.06-.132 10.054 0 15.114.065 3.286-1.577 4.929-4.6 5.126-7.295.591-14.26-.197-19.977-5.389-2.038-1.84-3.746-1.511-6.112-.394-14.72 6.9-29.834 8.543-44.948 1.38-9.989-4.732-15.246-13.537-17.94-23.92-3.023-11.632-3.483-23.329.722-34.894 2.563-7.032 6.572-13.143 12.486-17.743 2.629-2.037 2.957-4.14 1.643-6.769-.591-1.248-1.38-2.497-2.169-3.68-12.551-18.597-2.3-43.7 19.78-47.708 10.975-1.972 21.818-.592 32.332 3.023 2.957.985 4.403 2.89 4.206 6.177-.263 3.942.065 7.885-.263 11.828-.46 4.534-2.169 5.586-6.637 4.666-4.6-.986-9.135-2.103-13.735-2.892-1.905-.328-3.943-.065-5.848.329-5.455 1.117-7.689 4.074-7.689 9.726 0 7.491 2.957 14.063 6.637 20.371 5.652 9.594 11.5 19.123 17.283 28.652.657 1.117 1.709 2.037 2.497 3.022.263-.065.592-.262.986-.46Zm-32.66-4.797c-.986 1.775-1.577 2.629-1.971 3.615-2.958 7.228-2.892 14.522-.526 21.817 2.826 8.74 9.988 12.354 18.926 9.988 3.68-.985 3.942-1.511 1.905-4.928-3.548-6.046-7.228-11.96-10.843-18.006-2.365-3.877-4.665-7.82-7.491-12.486Z" fill="#DA2626"/><path d="M271.532 159.272c-.131-.591-.197-1.182-.328-1.774.328-1.051.985-2.168.985-3.22a4355.64 4355.64 0 0 0 0-41.531c0-.92-.657-1.84-.985-2.76-.066-1.183-.198-2.366-.395-4.6-1.117 2.563-1.84 4.205-2.563 5.914-2.957 7.097-5.98 14.063-8.674 21.226-1.446 3.745-4.008 4.205-7.491 4.205-3.22 0-4.666-1.642-5.717-4.271-3.68-9.134-7.426-18.137-11.895-27.271-.065 1.051-.131 2.102-.131 3.154v47.971c0 5.455-.789 6.243-6.309 6.243h-9.528c-4.337-.066-5.389-1.117-5.389-5.52V72.595c0-2.103.066-4.14 0-6.243-.066-2.234 1.052-3.68 3.22-3.745 4.994-.197 10.054-.263 15.049-.132 2.891.066 4.271 2.366 5.454 4.666 4.863 9.791 9.726 19.583 14.654 29.374.395.855.92 1.577 1.577 2.695.658-.855 1.118-1.315 1.38-1.906 4.929-9.857 9.989-19.714 14.786-29.637 1.906-3.943 4.6-5.849 9.003-5.52 3.351.263 6.769.197 10.12.263 3.22.065 4.337 1.905 4.337 4.928-.066 7.426 0 14.917 0 22.343v66.7c0 5.126-.986 6.177-6.111 6.177-3.417 0-6.769.066-10.186-.066-1.971-.065-4.074-.131-4.666-2.628a1.062 1.062 0 0 1-.197-.592ZM59.997 62.671c.197-.066.394-.066.657-.066.197.132.329.395.526.395h25.957c.197 0 .329-.263.526-.395 16.691.066 28.06 8.74 30.36 25.695 2.234 16.626 2.497 33.646-.46 50.272-2.76 15.377-13.274 23.525-29.572 23.985-8.937.263-17.94.066-26.877.066-2.3 0-4.14-.591-4.337-3.351 0-.198-.066-.46-.066-.658-.065-1.314-.197-2.628-.197-3.877V67.929c0-1.052.197-2.169.329-3.22.986-.724 2.037-1.38 3.154-2.038Zm37.917 63.021v-26.22c-.131-1.183-.394-2.366-.46-3.55-.591-10.842-4.863-15.048-15.114-14.983-4.6 0-4.666.067-4.666 4.864v51.191c0 8.083-.854 7.031 7.295 7.031 5.98.066 9.462-2.431 11.105-8.214.855-3.089 1.183-6.374 1.709-9.594.066-.131.131-.328.131-.525ZM196.289 113.534c0 7.886.722 15.838-.132 23.592-2.103 18.466-14.588 27.863-33.186 26.483-11.105-.855-19.78-5.06-24.708-15.443-3.023-6.374-3.746-13.274-3.746-20.174-.066-12.815-.066-25.629.526-38.378.854-17.742 12.223-28.06 30.031-28.191 8.609-.066 16.495 1.38 22.869 7.754 5.06 5.06 7.557 11.303 8.148 18.203.723 8.674-.131 17.414.198 26.154.328 0-.263 0 0 0Zm-21.095-18.202c.132-.066-.197 0 0 0 0-2.629.066-5.455-.723-8.083-1.117-4.863-4.14-7.229-8.74-7.295-4.534 0-7.425 2.235-8.674 6.966-.46 1.774-.854 3.68-.92 5.454a3978.366 3978.366 0 0 0 0 39.692c0 1.971.394 3.943.854 5.848 1.512 5.915 6.309 8.346 12.158 6.44 4.862-1.642 5.848-5.848 5.914-9.988.263-13.077.131-26.023.131-39.034ZM260.687 173.532c2.891 4.929 5.782 9.857 8.608 14.852 1.577 2.694 3.023 5.454 4.863 8.74 2.3-4.009 4.337-7.557 6.309-11.172 2.037-3.614 4.337-7.097 6.045-10.843 1.183-2.628 2.76-3.614 5.52-3.22 1.38.198 2.826.066 4.535.066v29.243h-5.126v-24.511c-.197-.066-.46-.132-.657-.198-3.155 5.783-6.309 11.5-9.529 17.283-.788 1.446-1.774 2.826-2.3 4.337-1.051 3.155-3.351 3.68-6.111 3.22-.657-.131-1.577-.46-1.84-.92-3.089-5.717-6.112-11.565-9.135-17.348 1.118.394 2.235.723 3.352 1.117.066-.46.131-.986.131-1.446-1.183.066-2.365.197-3.548.263-1.446-2.234-2.826-4.403-4.732-7.36v25.432h-5.191v-29.112c2.366 0 4.666-.131 6.966.066.591.066 1.182.92 1.708 1.446-.066.197-.197.328-.263.525.197-.197.263-.328.395-.46Zm19.845 17.415c-.065-.198-.131-.46-.263-.526-.131-.066-.328.131-.525.197.065.197.131.46.197.526.197.065.394-.066.591-.197Zm13.866-17.678v.263h.986v-.263h-.986ZM113.95 201.92h-.986c-13.734-.066-20.7-10.777-14.654-23.263 1.183-2.497 4.009-4.797 6.571-5.848 5.718-2.3 11.763-2.103 17.678-.329 5.06 1.512 7.688 5.126 8.345 10.252.197 1.642.395 3.285.329 4.928-.46 10.383-5.192 14.26-17.283 14.26Zm11.894-15.18c-.065-4.14-.131-8.411-3.943-10.908-4.731-3.089-10.054-3.023-15.048-.658-4.337 2.038-4.863 6.44-4.863 10.646 0 2.234.263 4.6.723 6.769.723 3.614 3.22 5.783 6.703 6.308 2.891.46 5.914.395 8.74 0 3.943-.525 6.374-3.154 7.163-7.097.394-1.511.394-3.286.525-5.06ZM143.124 173.072c.328-.395.723-1.183 1.051-1.117 7.294.262 14.654.065 21.817 1.182 7.886 1.249 10.646 5.98 10.317 15.18-.197 6.703-4.205 11.5-11.237 12.289-6.834.723-13.734.591-20.568.657-.46 0-.92-1.117-1.315-1.643.329-.854.92-1.708.92-2.563.066-7.228.066-14.522 0-21.751-.065-.854-.657-1.511-.985-2.234Zm5.191 25.563c4.403 0 8.477.262 12.486-.066 6.571-.46 9.988-4.337 10.186-10.909a33.514 33.514 0 0 0 0-3.614c-.329-4.863-2.563-8.017-7.295-8.74-4.994-.723-10.12-.657-15.377-.92v24.249ZM212.19 195.349c1.577 1.183 3.023 3.154 4.732 3.417 3.745.526 7.622.526 11.302.066 3.878-.526 5.06-2.432 5.126-6.375V172.02h5.323c0 7.492.131 14.917-.066 22.277-.065 3.089-2.234 5.258-5.191 6.178-7.032 2.168-14.194 2.234-21.292.131-4.074-1.249-5.52-3.614-5.52-7.886v-20.634c1.972.591 4.337-1.971 5.323 1.577-.263.526-.788 1.117-.788 1.643a854.968 854.968 0 0 0 0 18.4c0 .526.723 1.051 1.051 1.643ZM61.97 188.843v11.106c-.262.394-.46.788-.722 1.183h-3.286v-27.797c1.117-.592 1.906-.986 2.629-1.38h1.248c3.943.065 7.951.065 11.894.131 3.155.723 6.572.92 9.463 2.3 5.06 2.3 5.126 8.411.263 11.106-1.906 1.051-4.271 1.38-6.44 2.037-1.314.131-2.629.263-4.009.394l-10.908.197c0 .263-.066.526-.131.723Zm.264-2.957c4.994-.329 9.79-.526 14.522-1.051 2.563-.329 4.929-1.38 4.929-4.666 0-3.352-2.366-4.666-5.06-4.929-4.732-.525-9.463-.657-14.392-.92v11.566ZM188.467 172.021h4.862v29.176h-4.862v-29.176Z" fill="#000"/><path d="M271.205 109.987c.328.92.986 1.84.986 2.76a4422.65 4422.65 0 0 1 0 41.531c0 1.052-.658 2.169-.986 3.22v-47.511ZM60.653 172.021c-.788.394-1.511.788-2.628 1.38v27.796c-.395-.526-1.183-1.117-1.183-1.643-.066-9.068-.066-18.071-.066-27.468 1.38-.065 2.629-.065 3.877-.065Z" fill="#000"/><path d="M87.6 62.54c-.198.132-.33.395-.527.395-8.674 0-17.282.066-25.957 0-.197 0-.328-.263-.525-.394 3.022-.132 6.045-.46 9.068-.46 5.98.131 11.96.328 17.94.46Z" fill="#585858"/><path d="M143.124 173.072c.328.723.92 1.38.985 2.103.066 7.229.066 14.523 0 21.752 0 .854-.591 1.708-.92 2.562-.065-8.74-.065-17.611-.065-26.417ZM212.193 195.349c-.395-.591-1.052-1.117-1.052-1.708a868.12 868.12 0 0 1 0-18.4c0-.526.526-1.118.789-1.643.131 7.228.197 14.522.263 21.751Z" fill="#000"/><path d="M73.86 172.152c-3.942-.066-7.95-.066-11.893-.131 3.942.065 7.885.131 11.894.131ZM73.076 187.99c1.315-.132 2.629-.263 4.009-.395-1.314.132-2.629.263-4.009.395Z" fill="#4B494A"/><path d="M261.871 182.929c1.183-.065 2.366-.197 3.549-.262-.066.46-.131.985-.131 1.445-1.118-.394-2.3-.723-3.418-1.183Z" fill="#000"/><path d="M59.996 62.672a138.642 138.642 0 0 1-3.22 1.972 138.165 138.165 0 0 1 3.22-1.972Z" fill="#585858"/><path d="M61.248 201.198c.263-.394.46-.788.723-1.182-.197.394-.46.788-.723 1.182Z" fill="#4B494A"/><path d="M271.533 159.272c0 .198.066.46.066.658 0-.263-.066-.46-.066-.658Z" fill="#292627"/><path d="M61.967 188.843c.065-.263.131-.46.197-.723-.066.263-.132.526-.197.723Z" fill="#4B494A"/><path d="M56.648 158.615c0 .197.066.46.066.657 0-.262-.066-.46-.066-.657Z" fill="#282627"/><path d="M339.942 141.66c2.826 4.666 5.126 8.609 7.491 12.486 3.615 5.98 7.295 11.96 10.843 18.006 2.037 3.417 1.775 3.942-1.905 4.928-8.872 2.366-16.035-1.248-18.926-9.988-2.366-7.295-2.432-14.589.526-21.818.394-.985.985-1.84 1.971-3.614Z" fill="#FBF9F8"/><path d="M97.911 100.129v25.563c-.066.197-.066.395-.131.657-.592 3.22-.855 6.506-1.709 9.595-1.643 5.783-5.126 8.214-11.106 8.214-8.148-.066-7.294.986-7.294-7.031V85.935c0-4.797.066-4.863 4.666-4.863 10.251 0 14.523 4.14 15.114 14.983.066 1.183.329 2.366.46 3.549v.525Z" fill="#FDFDFD"/><path d="M97.847 126.349c.066-.197.066-.394.132-.657-.066.197-.132.394-.132.657Z" fill="#252525"/><path d="M175.065 95.332c0 13.011.197 26.023-.132 39.034-.065 4.14-1.051 8.346-5.914 9.989-5.783 1.971-10.646-.526-12.157-6.44-.46-1.906-.854-3.878-.854-5.849a3978.326 3978.326 0 0 1 0-39.691c0-1.84.394-3.68.92-5.455 1.248-4.731 4.205-6.965 8.674-6.965 4.666 0 7.623 2.365 8.74 7.294.591 2.629.263 5.389.723 8.083.131-.066-.197 0 0 0Z" fill="#FCFCFC"/><path d="M280.532 190.946c-.197.066-.394.263-.525.197-.132-.065-.132-.328-.198-.525.198-.066.395-.263.526-.198.066.066.132.395.197.526ZM294.4 173.269h.986v.263h-.986v-.263Z" fill="#000"/><path d="M260.691 173.533c-.132.131-.263.262-.329.46.066-.198.197-.329.263-.526l.066.066Z" fill="#3A3939"/><path d="M125.845 186.74c-.132 1.709-.197 3.483-.526 5.192-.723 3.942-3.154 6.571-7.163 7.097a32.46 32.46 0 0 1-8.74 0c-3.483-.526-5.98-2.695-6.703-6.309-.46-2.234-.722-4.534-.722-6.768 0-4.272.525-8.609 4.862-10.646 4.995-2.366 10.252-2.432 15.049.657 3.877 2.431 3.943 6.703 3.943 10.777Z" fill="#FBFBFB"/><path d="M148.319 198.635v-24.248c5.257.263 10.383.197 15.377.92 4.732.723 6.966 3.877 7.295 8.74a33.514 33.514 0 0 1 0 3.614c-.198 6.571-3.68 10.449-10.186 10.909-4.009.262-8.017.065-12.486.065Z" fill="#FAFAFA"/><path d="M62.233 185.886V174.32c4.929.329 9.726.394 14.392.92 2.694.328 5.06 1.577 5.06 4.928 0 3.22-2.431 4.338-4.929 4.667-4.731.591-9.528.722-14.523 1.051Z" fill="#F7F7F7"/></g><defs><clipPath id="a"><path fill="#fff" d="M0 0h460v262.857H0z"/></clipPath></defs></svg>