<svg xmlns="http://www.w3.org/2000/svg" width="24" height="24" fill="none"><path d="M13.61 12.244a1.6 1.6 0 1 1-1.56-1.63 1.62 1.62 0 0 1 1.56 1.63Z" fill="#fff"/><path d="M14.761 7.232H9.337a2.024 2.024 0 0 0-2.024 2.024v5.547a2.024 2.024 0 0 0 2.024 2.024h5.425a2.025 2.025 0 0 0 2.024-2.024V9.266a2.025 2.025 0 0 0-2.024-2.034Zm-2.712 7.723a2.703 2.703 0 1 1 2.642-2.703 2.672 2.672 0 0 1-2.643 2.703Zm2.936-5.405a.495.495 0 0 1-.496-.506.506.506 0 1 1 1.011 0 .496.496 0 0 1-.556.506h.04Z" fill="#fff"/><path d="M12.05 2a10 10 0 1 0-.1 20 10 10 0 0 0 .1-20Zm6.073 12.702a3.39 3.39 0 0 1-3.41 3.411H9.39a3.392 3.392 0 0 1-3.41-3.41V9.378a3.39 3.39 0 0 1 3.41-3.41h5.324a3.39 3.39 0 0 1 3.41 3.41v5.324Z" fill="#fff"/></svg>