<svg xmlns="http://www.w3.org/2000/svg" version="1.1" id="Слой_1" x="0" y="0" viewBox="0 0 1366 768" style="enable-background:new 0 0 1366 768" xml:space="preserve"><style>.st0{fill:#e6e2d7}</style><path class="st0" d="M353.9 293.3c-.9 0-1.8-.8-1.8-1.7v-8.8c0-.9.8-1.7 1.8-1.7h56.5c.9 0 1.8.8 1.8 1.7v8.8c0 .9-.8 1.7-1.8 1.7"/><path class="st0" d="m268.9 394.3-44.7 43.6c-.3.3-.5.8-.5 1.2V500c0 .9-.8 1.7-1.8 1.7h-32.8c-.9 0-1.8-.8-1.8-1.7V258.5c0-.9.8-1.7 1.8-1.7h32.8c.9 0 1.8.8 1.8 1.7v130.8c0 1.5 2 2.3 3 1.2l134.7-133.3c.3-.3.8-.5 1.3-.5h36.5c1.6 0 2.3 1.8 1.3 3L295.7 365.9c-.6.6-.7 1.6-.1 2.3l112.3 130.7c.9 1.1.1 2.8-1.3 2.8h-37.9c-.5 0-1-.3-1.3-.6l-95.8-106.7c-.8-.8-2-.8-2.7-.1z"/><path class="st0" d="M492.1 471.3c20.6 0 38.7-3.9 54.2-11.6 15.8-7.7 27.9-18.4 36.4-32.2 8.5-14 12.8-30.1 12.8-48.3s-4.2-34.1-12.8-48c-8.5-14-20.6-24.8-36.4-32.5-15.5-7.7-33.6-11.6-54.2-11.6h-67c-.9 0-1.8.8-1.8 1.7v180.5c0 .9.8 1.7 1.8 1.7l67 .3zM380 258.6c0-.9.8-1.7 1.8-1.7h105.6c27 0 50.8 5.1 71.7 15.4 20.9 10.3 37 24.7 48.4 43.4 11.7 18.4 17.5 39.6 17.5 63.6s-5.8 45.4-17.5 64c-11.4 18.4-27.5 32.8-48.4 43.1-20.9 10.3-44.8 15.4-71.7 15.4H381.8c-.9 0-1.8-.8-1.8-1.7V258.6zM414.2 293.3h-56.5M737.9 358.8v110.6c0 8.1.2 17.4.8 23.6h-14.9l-.8-15.9h-.4c-5.1 10.2-16.3 18-31.2 18-22.1 0-39.1-18.7-39.1-46.5-.2-30.4 18.7-49.2 41-49.2 14 0 23.4 6.6 27.6 14h.4v-54.6h16.6zm-16.6 80c0-2.1-.2-4.9-.8-7-2.5-10.6-11.5-19.3-24-19.3-17.2 0-27.4 15.1-27.4 35.4 0 18.5 9.1 33.8 27 33.8 11.2 0 21.4-7.4 24.4-19.9.6-2.3.8-4.5.8-7.2v-15.8zM774.8 450.3c.4 22.5 14.7 31.8 31.4 31.8 11.9 0 19.1-2.1 25.3-4.7l2.8 11.9c-5.9 2.6-15.9 5.7-30.4 5.7-28.2 0-45-18.5-45-46.1s16.3-49.3 42.9-49.3c29.9 0 37.8 26.3 37.8 43.1 0 3.4-.4 6.1-.6 7.8h-64.2zm48.7-11.9c.2-10.6-4.3-27-23.1-27-16.8 0-24.2 15.5-25.5 27h48.6zM857.9 476c4.9 3.2 13.6 6.6 21.9 6.6 12.1 0 17.8-6 17.8-13.6 0-7.9-4.7-12.3-17-16.8-16.4-5.9-24.2-14.9-24.2-25.9 0-14.7 11.9-26.8 31.6-26.8 9.3 0 17.4 2.6 22.5 5.7l-4.2 12.1c-3.6-2.3-10.2-5.3-18.7-5.3-9.8 0-15.3 5.7-15.3 12.5 0 7.6 5.5 11 17.4 15.5 15.9 6 24 14 24 27.6 0 16.1-12.5 27.4-34.2 27.4-10 0-19.3-2.5-25.7-6.2l4.1-12.8zM953.6 375.8c.2 5.7-4 10.2-10.6 10.2-5.9 0-10-4.5-10-10.2 0-5.9 4.3-10.4 10.4-10.4 6.2 0 10.2 4.6 10.2 10.4zM935.1 493v-91.5h16.6V493h-16.6zM1058.2 401.5c-.4 6.6-.8 14-.8 25.1v53.1c0 21-4.2 33.8-13 41.8-8.9 8.3-21.7 11-33.3 11-11 0-23.1-2.6-30.4-7.6l4.2-12.7c6.1 3.8 15.5 7.2 26.8 7.2 17 0 29.5-8.9 29.5-32v-10.2h-.4c-5.1 8.5-14.9 15.3-29.1 15.3-22.7 0-38.9-19.3-38.9-44.6 0-31 20.2-48.6 41.2-48.6 15.9 0 24.6 8.3 28.5 15.9h.4l.8-13.8h14.5zm-17.2 36.1c0-2.8-.2-5.3-.9-7.6-3-9.6-11.2-17.6-23.3-17.6-15.9 0-27.2 13.4-27.2 34.6 0 18 9.1 32.9 27 32.9 10.2 0 19.5-6.4 23.1-17 .9-2.8 1.3-6 1.3-8.9v-16.4zM1083.9 426.3c0-9.5-.2-17.2-.8-24.8h14.7l.9 15.1h.4c4.5-8.7 15.1-17.2 30.3-17.2 12.7 0 32.3 7.6 32.3 38.9V493h-16.6v-52.8c0-14.7-5.5-27-21.2-27-11 0-19.5 7.8-22.3 17-.8 2.1-1.1 4.9-1.1 7.8v55h-16.6v-66.7z"/></svg>