<svg width="460" height="264" fill="none" xmlns="http://www.w3.org/2000/svg"><g clip-path="url(#a)"><path d="M460 .286H0v262.857h460V.286Z" fill="#fff"/><path d="M99.646 182.137h-14.88v-1.285c0-18.228.019-36.439-.017-54.667 0-1.612-.182-3.277-.58-4.834-.833-3.24-2.842-5.683-5.919-7.005-5.14-2.208-10.409-2.353-15.532-.054-4.543 2.027-6.95 5.72-7.222 10.716-.036.598-.036 1.213-.036 1.81v55.319H40.815c-.018-.362-.054-.67-.054-.995 0-26.212 0-52.441-.018-78.653 0-.868.235-1.122 1.104-1.104 3.657.054 7.295.054 10.952 0 .887-.018 1.104.272 1.122 1.123.072 2.009.272 4.018.416 6.028.127.09.236.18.362.289.109-.235.163-.525.326-.724 3.838-4.453 8.58-7.222 14.427-8.073 8.074-1.159 15.46.163 21.578 5.937 1.321 1.249 2.425 2.733 3.62 4.109.977-1.014 1.955-2.154 3.06-3.168 4.145-3.819 9.122-5.901 14.625-6.77 4.508-.706 8.997-.814 13.468.326 9.558 2.444 16.292 10.047 17.523 19.876.181 1.521.307 3.059.307 4.597.018 18.646.018 37.29.018 55.935v1.231h-14.698v-1.159c0-18.282.018-36.565-.018-54.848 0-1.611-.199-3.258-.616-4.815-.977-3.62-3.403-6.064-6.897-7.349-4.416-1.611-8.924-1.702-13.376-.145-5.25 1.847-8.31 6.227-8.364 11.784-.036 3.928-.018 7.838-.018 11.767v43.443c-.018.435-.018.851-.018 1.358ZM418.996 141.082c-.017 24.582-19.567 44.042-44.222 44.024-24.583-.018-43.987-19.55-43.97-44.241.037-24.419 19.55-43.879 44.042-43.915 24.583-.018 44.169 19.568 44.15 44.132Zm-72.732-24.818c-5.522 6.336-8.345 13.758-8.924 22.193h13.503c.562-3.023.978-6.009 1.666-8.924.688-2.914 1.629-5.774 2.443-8.635-2.823-1.502-5.683-3.022-8.688-4.634Zm66.162 22.212c-.055-.707-.091-1.304-.163-1.901-.09-.815-.217-1.611-.344-2.408-1.104-6.535-3.729-12.363-8.002-17.432-.343-.416-.597-.488-1.121-.199a188.596 188.596 0 0 1-7.314 3.91c-.669.344-.76.634-.525 1.303 1.394 3.766 2.462 7.621 3.114 11.585.271 1.72.507 3.44.76 5.159 4.525-.017 9.015-.017 13.595-.017Zm-57.383 22.663c-.127-.362-.29-.778-.434-1.195-1.828-5.05-3.168-10.227-3.512-15.622-.036-.705-.38-.742-.923-.742-3.983.018-7.965 0-11.929.018-.272 0-.525.036-.905.072.597 8.454 3.421 15.894 8.924 22.175 3.005-1.611 5.865-3.15 8.779-4.706Zm48.459 4.688c5.52-6.299 8.345-13.739 8.924-22.174h-13.685c-.399 6.118-1.919 11.91-4.037 17.468 2.987 1.611 5.847 3.131 8.798 4.706Zm-26.067-27.387h16.237c-.416-5.486-1.665-10.699-3.476-15.532a4347.977 4347.977 0 0 0-12.761 3.24v12.292Zm0 17.504c4.308 1.104 8.526 2.172 12.78 3.24 1.756-4.924 3.059-10.119 3.439-15.531h-16.237c.018 4.199.018 8.326.018 12.291Zm-21.342-17.504h16.147c.036-.146.072-.236.072-.326 0-3.893 0-7.784.018-11.676 0-.598-.344-.67-.796-.742-1.376-.218-2.752-.362-4.091-.706-2.607-.67-5.196-1.467-7.856-2.227-1.847 4.996-3.114 10.21-3.494 15.677Zm0 5.213c.435 5.503 1.702 10.716 3.475 15.549 4.308-1.104 8.49-2.154 12.726-3.24v-12.309h-16.201Zm32.347-25.451c-.144-.363-.235-.598-.343-.851-1.919-4.417-4.363-8.508-7.041-12.491-.96-1.43-2.191-1.43-3.585-1.43v17.197a50.018 50.018 0 0 0 10.969-2.425Zm-10.969 43.353v17.089c2.172.126 2.643-.019 3.747-1.756a166.74 166.74 0 0 0 4.725-7.911c.923-1.647 1.629-3.403 2.425-5.123-2.118-.96-8.852-2.389-10.897-2.299Zm-5.195-40.946v-17.16c-1.503-.073-2.788.017-3.602 1.502-.688 1.267-1.666 2.372-2.372 3.62-1.755 3.114-3.439 6.263-5.195 9.522 3.783 1.303 7.386 2.154 11.169 2.516Zm0 40.874c-3.765.344-7.313 1.14-10.843 2.317 1.937 4.779 4.417 9.159 7.241 13.377.941 1.412 2.135 1.52 3.602 1.484v-17.178Zm-22.464 7.892c3.855 3.404 7.928 5.775 12.454 7.187-1.865-3.584-3.729-7.169-5.666-10.879-2.154 1.176-4.399 2.389-6.788 3.692Zm50.159 0c-2.425-1.303-4.688-2.534-6.806-3.675-1.955 3.748-3.783 7.295-5.647 10.88 4.561-1.467 8.634-3.82 12.453-7.205Zm-12.489-63.863c1.918 3.566 3.819 7.114 5.792 10.789 2.136-1.158 4.344-2.353 6.661-3.602-3.819-3.385-7.928-5.739-12.453-7.187Zm-25.198 0c-4.562 1.485-8.689 3.802-12.455 7.204 2.39 1.268 4.598 2.463 6.68 3.567 1.991-3.693 3.874-7.205 5.775-10.771ZM172.689 145.353c.235 8.617 4.67 19.894 15.259 24.003 3.53 1.375 7.187 1.701 10.934 1.466 7.042-.416 13.25-2.86 18.663-7.367.108-.091.253-.145.525-.326-.453 2.281-.869 4.435-1.303 6.571-.58 2.842-1.177 5.666-1.72 8.508-.109.616-.417.941-.906 1.231-4.127 2.353-8.579 3.62-13.268 4.163-3.747.435-7.513.561-11.277.036-6.626-.923-12.509-3.511-17.614-7.802-7.494-6.299-11.802-14.463-13.594-23.967-2.009-10.679-1.122-21.16 3.367-31.134 3.783-8.4 9.703-14.862 18.246-18.609 14.808-6.48 34.376-.452 40.241 18.681 1.267 4.109 1.647 8.327 1.267 12.599-.036.38-.217.832-.489 1.104-3.312 3.458-6.643 6.915-10.028 10.318-.326.326-.959.471-1.448.471-11.821.018-23.659.018-35.48.018-.416.036-.85.036-1.375.036Zm.669-12.291h33.289c0-1.629.145-3.24-.036-4.797-.525-4.779-2.353-9.015-5.901-12.381-2.046-1.938-4.453-3.151-7.313-3.422-3.711-.344-6.969.851-9.865 3.041-5.793 4.381-8.816 10.427-10.174 17.559ZM228.567 113.441v-12.02h1.05c3.766 0 7.549-.036 11.314.019.978.017 1.141-.309 1.141-1.177-.036-4.38 0-8.744-.036-13.124 0-.778.253-1.159.941-1.52 4.253-2.209 8.471-4.472 12.707-6.716.236-.127.471-.236.869-.417v22.899h24.274c-.271 1.557-.525 2.968-.778 4.381-.398 2.226-.832 4.435-1.177 6.68-.127.796-.416 1.013-1.212 1.013-6.608-.036-13.215-.018-19.822-.018-1.249 0-1.249 0-1.249 1.285v44.965c0 1.738.109 3.439.851 5.032 1.738 3.747 4.869 5.376 8.815 5.594 2.788.144 5.54-.145 8.309-1.394-.271 1.502-.507 2.841-.76 4.181-.507 2.716-1.068 5.431-1.539 8.164-.126.743-.47 1.068-1.158 1.267-2.408.724-4.87.779-7.35.67-4.579-.199-8.851-1.393-12.653-4.036-4.833-3.368-7.585-8.074-8.562-13.83-.344-2.046-.453-4.146-.453-6.209-.036-14.753-.017-29.506-.017-44.241 0-1.72.108-1.466-1.521-1.484-3.584-.018-7.186 0-10.771 0-.398.036-.76.036-1.213.036ZM306.584 182.136h-14.807v-80.661c.253-.018.525-.055.778-.055 4.073 0 8.146.019 12.219-.018.778 0 .923.272.959.996.108 3.312.29 6.625.453 9.937.018.2.036.399.072.761.145-.217.217-.308.271-.398 2.644-5.684 7.223-9.051 13.052-10.879 3.15-.996 6.426-1.34 9.72-1.449.435-.017.797-.036.888.58.688 3.946 1.411 7.892 2.118 11.82.017.109 0 .236 0 .435-.996.054-1.992.09-2.969.144-10.3.67-18.229 6.952-21.252 16.799-.959 3.131-1.484 6.336-1.484 9.612-.018 13.703-.018 27.388-.018 41.091v1.285ZM412.46 101.439c-3.494 0-6.335-2.824-6.335-6.317 0-3.476 2.86-6.318 6.353-6.3 3.458.018 6.282 2.824 6.299 6.281.019 3.476-2.823 6.336-6.317 6.336Zm5.087-6.317c0-2.86-2.227-5.105-5.087-5.105a5.126 5.126 0 0 0-5.159 5.069c-.018 2.823 2.336 5.194 5.159 5.177 2.842 0 5.087-2.281 5.087-5.141Z" fill="#000"/><path d="M411.231 98.688h-1.303c0-2.335-.018-4.616.018-6.897 0-.162.29-.488.453-.488.923-.019 1.864-.019 2.788.072.923.09 1.683.489 1.9 1.502.217.996-.181 1.684-1.086 2.19 1.285.924.797 2.39 1.285 3.567-1.52.217-1.574.18-1.756-1.177v-.09c-.217-1.738-.452-1.92-2.299-1.702v3.023Zm.055-6.118v1.828c.651-.072 1.231-.018 1.738-.217.271-.11.543-.616.543-.942 0-.217-.471-.561-.779-.633-.452-.109-.941-.036-1.502-.036Z" fill="#000"/></g><defs><clipPath id="a"><path fill="#fff" transform="translate(0 .286)" d="M0 0h460v262.857H0z"/></clipPath></defs></svg>