<svg width="460" height="264" fill="none" xmlns="http://www.w3.org/2000/svg"><g clip-path="url(#a)"><path d="M460 .857H0v262.858h460V.857Z" fill="#fff"/><path d="M0 203.559V60.657h460V203.56H0Zm211.494-91.028c-1.143-1.573-1.572-2.144-2-2.859-9.861-14.147-31.868-14.004-40.727.858-8.86 14.862-9.289 30.724-1.286 46.014 8.859 17.005 31.581 17.863 42.441 2.144.429-.715 1-1.286 1.715-2.144 0 3.43.143 6.288 0 9.289-.143 2.429 1.143 2.715 3.144 2.715 1.858 0 3.716.285 3.572-2.572-.142-2.43-.142-5.002-.142-7.431V80.377c0-2.429 0-4-3.287-3.858-2.715.143-3.43.858-3.43 3.43.143 10.431 0 20.864 0 32.582Zm70.88 21.864c-1.43-6.431-2.001-12.29-4.002-17.72-3.715-10.289-11.432-16.148-22.435-17.148-10.718-.858-20.006 2-26.009 11.289-9.145 14.29-9.288 29.438-2.143 44.585 3.429 7.431 9.86 12.004 17.863 13.432 4.43.858 9.288.858 13.861.286 11.718-1.428 20.864-11.575 21.293-24.293-5.288-1-5.431-1-6.717 3.716-3.858 14.004-14.29 17.863-27.008 15.29-12.004-2.43-18.149-14.861-17.149-29.581 16.863.144 34.011.144 52.446.144Zm121.894.285c-.285 0-.428-.143-.714-.143 0-1.143.143-2.429 0-3.572-1.286-17.291-9.86-30.296-27.866-31.724-14.004-1-26.008 6.573-30.009 20.006-3.001 10.003-3.144 20.149 0 30.295 3.858 12.718 14.147 20.149 27.865 20.149 13.29 0 23.865-7.145 27.723-19.434 1.573-5.002 2.001-10.289 3.001-15.577Zm-63.591-11.574v-1.716c-1.572-10.86-8.288-18.577-18.577-21.149-12.003-3.001-25.008.714-31.009 9.289-8.432 12.003-8.717 25.293-5.431 39.012 6.002 24.293 33.01 25.436 46.014 15.576 6.574-5.002 9.432-12.147 9.861-20.578h-5.859c-.286 1.286-.429 2.429-.572 3.573-1.858 9.431-8.145 15.862-16.862 17.005-11.718 1.572-20.435-2.144-24.293-11.575-5.288-12.861-5.431-26.151 1.428-38.584 5.002-8.859 13.719-10.431 23.007-9.145 8.289 1.143 13.29 6.287 15.434 14.29 1.286 5.144 1.572 5.288 6.859 4.002ZM63.591 168.119l1.286.429c.429-1.001 1.286-1.858 1.286-2.858.143-13.861.43-27.866-.142-41.728-.143-5.001 1.285-8.717 4-12.432 1.43-1.715 2.859-3.572 4.43-5.144 10.004-9.717 26.294-5.145 29.439 8.431.857 3.43 1.142 7.002 1.142 10.575.144 12.718 0 25.436 0 38.154 0 1.572.715 3.144 1.144 4.716.428-1.572 1.286-3.287 1.429-4.859.143-10.146.143-20.291 0-30.294 0-5.145 0-10.289-.572-15.291-1.286-10.86-7.574-17.72-16.577-18.577-7.43-.715-13.86 1.428-18.862 7.145-2.287 2.572-4.287 5.43-6.574 8.431-2.143-8.431-6.573-14.29-15.433-15.434-9.146-1.286-16.291 2.287-21.721 9.575-1.43 1.858-2.715 3.858-4.43 6.287-.143-1.571-.286-2.572-.286-3.572 0-2.715.143-5.43 0-8.145 0-.858-.857-1.715-1.286-2.573-.429.715-1 1.572-1.286 2.287-.143.286 0 .714 0 1v60.733c0 .715-.143 1.43 0 2.144.143.428.714 1.286 1 1.143.572-.143 1.286-.571 1.43-1.143.285-.858.142-1.858.142-2.858 0-12.576 0-25.294-.286-37.869-.143-5.002 1.286-9.146 4.001-13.004 1.715-2.287 3.287-4.716 5.288-6.716 5.287-5.145 11.718-6.574 18.72-4.716 6.716 1.715 9.86 6.716 11.29 13.004.714 3.287 1 6.859 1.142 10.288.143 13.005 0 26.009 0 38.87.286 1.429.286 2.715.286 4.001Zm350.395-57.16.429.857c.142-2.43.286-5.002.428-7.431.143-2.286.143-3.858-3.001-3.858-2.715 0-3.716.714-3.716 3.573.144 20.148.144 40.44 0 60.59 0 2.286.144 3.715 3.145 3.715 2.858 0 3.572-.858 3.572-3.715-.286-11.719-.286-23.579-.286-35.297-.142-15.148 12.004-26.294 26.009-23.436.428.143.857-.143 1.286-.285.571-5.431.286-5.717-4.859-5.717-6.002 0-11.433 1.715-16.148 5.717-2.001 1.857-4.43 3.572-6.859 5.287ZM136.9 164.404c-2.001-5.002-3.716-9.432-5.431-13.861-6.001-15.577-12.003-31.296-18.005-46.872-.571-1.43-.572-3.859-3.716-2.573.572 1.429 1.001 2.716 1.429 4.002l23.579 60.447c.571 1.572.572 3.716.143 5.43-2.144 6.431-4.573 12.862-6.859 19.292.428.286.714.429 1.143.714.714-1.143 1.715-2.143 2.144-3.43 9.003-25.579 17.862-51.158 26.722-76.737 1.143-3.144 2.143-6.431 3.287-9.575-.429-.286-.715-.571-1.144-.714-.714.857-1.857 1.714-2.286 2.715-3.001 8.288-5.716 16.576-8.574 24.865-4.001 11.861-8.146 23.722-12.432 36.297Z" fill="#fff"/><path d="M211.491 112.531c0-11.575.143-22.15 0-32.724 0-2.716.857-3.43 3.429-3.43 3.288-.143 3.288 1.43 3.288 3.858v78.167c0 2.43 0 5.002.142 7.431.143 2.858-1.714 2.572-3.572 2.572-2.001 0-3.144-.285-3.144-2.714.143-3.001 0-6.003 0-9.289-.715.858-1.143 1.429-1.715 2.144-11.003 15.719-33.725 14.861-42.442-2.144-7.859-15.29-7.573-31.152 1.286-46.014 8.861-14.862 30.724-15.005 40.728-.858.571.715 1 1.429 2 3.001Zm.715 22.293c-.143-7.431-1.001-14.576-4.859-21.007-7.574-12.861-26.865-13.004-33.868.286-7.002 13.433-6.716 27.437.143 40.727 6.716 12.861 25.722 13.147 33.439.858 4.287-6.431 5.145-13.576 5.145-20.864ZM280.507 134.394h-50.586c-1.001 14.72 5.144 27.152 17.148 29.581 12.718 2.573 23.149-1.286 27.008-15.29 1.286-4.716 1.429-4.716 6.716-3.716-.428 12.862-9.574 23.007-21.292 24.293-4.573.572-9.289.429-13.862-.286-8.002-1.428-14.432-6.001-17.862-13.432-7.003-15.147-7.003-30.295 2.144-44.585 6.001-9.289 15.29-12.29 26.007-11.29 11.147 1.001 18.72 6.86 22.436 17.149 2.001 5.144 2.286 11.003 2.143 17.576Zm-6.001-5.43c-.286-8.574-2.287-16.004-9.575-20.863-7.431-4.859-15.576-5.145-23.293-.858-8.288 4.573-10.717 12.719-11.861 21.721h44.729ZM401.274 150.398c-3.859 12.29-14.434 19.577-27.723 19.435-13.719 0-24.008-7.431-27.866-20.149-3.001-10.003-3.001-20.15 0-30.295 4.144-13.433 16.005-21.15 30.009-20.007 18.149 1.287 26.723 14.29 27.866 31.724.143 1.144 0 2.43 0 3.573.286 0-.714 10.575-2.286 15.719Zm-49.588-2.858c2.716 10.717 10.147 16.576 21.293 17.148 10.432.429 18.72-5.144 21.864-15.29 3.144-9.717 3.144-19.72 0-29.438-3.144-10.003-11.289-15.719-21.435-15.577-10.575.144-18.149 5.574-21.292 15.72-1.287 4.573-1.43 23.15-.43 27.437ZM340.683 123.107c-5.43 1.286-5.574 1.144-6.86-3.858-2.143-8.003-7.145-13.147-15.433-14.29-9.288-1.429-18.005.143-23.007 9.145-7.002 12.433-6.717 25.723-1.429 38.584 3.859 9.574 12.576 13.147 24.293 11.575 8.717-1.144 15.005-7.574 16.862-17.006.286-1.143.429-2.286.572-3.572h5.859c-.428 8.431-3.287 15.576-9.86 20.578-12.861 9.717-40.012 8.717-46.014-15.576-3.287-13.719-3.001-27.009 5.43-39.012 6.002-8.575 19.006-12.29 31.01-9.289 10.289 2.572 17.005 10.289 18.577 21.149.143.429 0 1.001 0 1.572ZM63.594 168.12v-3.858c0-13.004.143-26.008 0-38.869 0-3.43-.429-6.859-1.144-10.289-1.286-6.288-4.572-11.289-11.289-13.004-7.145-1.858-13.432-.429-18.72 4.715-2 2.001-3.715 4.43-5.287 6.717-2.858 3.858-4.144 8.002-4.001 13.004.285 12.575.286 25.294.286 37.869 0 1 .142 2-.143 2.858-.143.429-.858.857-1.43 1.143-.142 0-.857-.714-1-1.143-.143-.715 0-1.429 0-2.144v-60.733c0-.286-.143-.714 0-1 .429-.858.858-1.572 1.286-2.286.429.857 1.143 1.714 1.287 2.572.142 2.715 0 5.43 0 8.145 0 1 .142 2.001.285 3.573 1.715-2.43 3.001-4.43 4.43-6.288 5.43-7.288 12.576-10.718 21.721-9.574 8.86 1.286 13.29 7.145 15.434 15.433 2.286-3.001 4.286-5.716 6.573-8.431 5.002-5.716 11.432-7.86 18.863-7.145 9.003.857 15.433 7.716 16.577 18.577.571 5.001.571 10.146.571 15.29.143 10.147.143 20.292 0 30.295 0 1.572-.857 3.287-1.429 4.859-.429-1.572-1.143-3.144-1.143-4.715 0-12.719.143-25.437 0-38.156 0-3.572-.286-7.145-1.143-10.574-3.144-13.576-19.435-18.149-29.438-8.431-1.572 1.571-3.001 3.287-4.43 5.144-2.858 3.573-4.287 7.431-4.001 12.433.572 13.861.142 27.865.142 41.727 0 1-.857 1.858-1.285 2.858a24.94 24.94 0 0 0-1.572-.572ZM413.991 110.96c2.43-1.858 4.859-3.43 7.003-5.431 4.716-4.001 10.146-5.715 16.148-5.715 5.144 0 5.287.428 4.859 5.715-.429.144-.858.429-1.287.286-14.004-2.858-26.008 8.289-26.008 23.436 0 11.718.143 23.579.286 35.297 0 2.715-.715 3.715-3.573 3.715-3 0-3.143-1.429-3.143-3.715 0-20.149.143-40.441 0-60.591 0-2.857 1-3.572 3.715-3.572 3.144 0 3.144 1.572 3.001 3.858-.286 2.43-.286 5.002-.429 7.431-.142-.142-.286-.428-.572-.714ZM136.894 164.405c4.287-12.576 8.431-24.437 12.433-36.44 2.857-8.288 5.715-16.577 8.574-24.865.428-1 1.572-1.858 2.286-2.715.429.286.714.571 1.144.714-1.144 3.144-2.144 6.431-3.287 9.575-8.86 25.579-17.72 51.158-26.723 76.738-.429 1.286-1.429 2.286-2.144 3.429-.428-.285-.714-.428-1.143-.714 2.287-6.43 4.716-12.861 6.86-19.292.571-1.572.571-3.715-.144-5.43-7.716-20.149-15.718-40.299-23.578-60.447-.572-1.286-1.001-2.572-1.429-4.002 3.144-1.286 3.144 1.144 3.715 2.573 6.002 15.576 12.004 31.295 18.006 46.872a681.543 681.543 0 0 0 5.43 14.004Z" fill="#000"/><path d="M212.212 134.824c-.143 7.288-1 14.433-5.002 20.864-7.859 12.289-26.865 12.146-33.438-.858-6.86-13.29-7.146-27.294-.144-40.727 7.003-13.29 26.295-13.147 33.868-.286 3.716 6.431 4.716 13.576 4.716 21.007ZM274.512 128.964h-44.728c1.144-9.003 3.573-17.149 11.861-21.722 7.717-4.287 15.862-4.144 23.293.858 7.288 4.716 9.289 12.289 9.574 20.864ZM352.249 120.104c3.144-10.146 10.717-15.576 21.292-15.719 10.146-.143 18.292 5.43 21.435 15.576 3.144 9.717 3.144 19.721 0 29.438-3.286 10.145-11.574 15.719-21.863 15.29-11.147-.572-18.578-6.431-21.293-17.148-1.143-4.287-1-22.865.429-27.437Z" fill="#fff"/></g><defs><clipPath id="a"><path fill="#fff" transform="translate(0 .857)" d="M0 0h460v262.857H0z"/></clipPath></defs></svg>