<svg width="460" height="264" fill="none" xmlns="http://www.w3.org/2000/svg"><g clip-path="url(#a)"><path d="M460 .571H0v262.857h460V.571Z" fill="#fff"/><mask id="b" style="mask-type:luminance" maskUnits="userSpaceOnUse" x="21" y="103" width="418" height="59"><path d="M438.783 103.086H21.029v58.486h417.754v-58.486Z" fill="#fff"/></mask><g mask="url(#b)"><path d="M407.206 121.423v30.348h5.189c2.866 0 5.191-4.471 5.191-9.985 0-.315 0-.626-.025-.936h.025v-21.989h20.543v-5.173h-25.753c-2.852-.009-5.17 3.458-5.17 7.735Zm-78.29-7.761h-10.277v13.211a12.195 12.195 0 0 0 1.064 5.173 9.775 9.775 0 0 0 3.385 3.932 17.759 17.759 0 0 0 5.951 2.496c2.86.636 5.784.933 8.714.884h9.578v12.46h10.293V113.64h-10.293v20.558h-9.558c-3.136 0-5.392-.625-6.765-1.872-1.376-1.247-2.064-3.073-2.061-5.475l-.031-13.189ZM50.544 151.805H60.84v-38.182H50.544v16.151H30.717v-16.151h-10.32v38.182h10.32v-16.888h19.85l-.023 16.888Zm255.594-19.078a25.15 25.15 0 0 1-.919 7.265 14.073 14.073 0 0 1-2.465 4.885 9.477 9.477 0 0 1-3.607 2.759 11.444 11.444 0 0 1-8.824 0 9.497 9.497 0 0 1-3.603-2.751 14.114 14.114 0 0 1-2.466-4.884 24.906 24.906 0 0 1-.938-7.274 24.9 24.9 0 0 1 .921-7.269 13.914 13.914 0 0 1 2.465-4.88 9.52 9.52 0 0 1 3.603-2.756 11.464 11.464 0 0 1 8.824 0 9.574 9.574 0 0 1 3.608 2.756 14.024 14.024 0 0 1 2.465 4.88c.662 2.365.977 4.814.936 7.269Zm9.371 8.808a21.946 21.946 0 0 0 1.657-8.808 22.089 22.089 0 0 0-1.657-8.778 17.95 17.95 0 0 0-4.598-6.467 19.865 19.865 0 0 0-7.094-3.963 31.166 31.166 0 0 0-18.196 0 19.858 19.858 0 0 0-7.063 3.967 17.978 17.978 0 0 0-4.598 6.468 22.067 22.067 0 0 0-1.656 8.778 21.948 21.948 0 0 0 1.656 8.808 17.994 17.994 0 0 0 4.598 6.424 19.918 19.918 0 0 0 7.055 3.967 31.236 31.236 0 0 0 18.197 0 19.862 19.862 0 0 0 7.093-3.967 17.995 17.995 0 0 0 4.606-6.429ZM97.232 132.71a25.053 25.053 0 0 1-.917 7.269 14.127 14.127 0 0 1-2.465 4.881 9.523 9.523 0 0 1-3.608 2.755 11.472 11.472 0 0 1-8.815 0 9.516 9.516 0 0 1-3.607-2.755 13.983 13.983 0 0 1-2.461-4.881 25.126 25.126 0 0 1-.917-7.269 25.054 25.054 0 0 1 .917-7.265 14.043 14.043 0 0 1 2.461-4.885 9.516 9.516 0 0 1 3.607-2.755 11.474 11.474 0 0 1 8.815 0 9.565 9.565 0 0 1 3.625 2.755 14.116 14.116 0 0 1 2.465 4.885 25.02 25.02 0 0 1 .9 7.265Zm9.378 8.813a21.989 21.989 0 0 0 1.656-8.813 21.934 21.934 0 0 0-1.656-8.787 17.89 17.89 0 0 0-4.595-6.467 19.822 19.822 0 0 0-7.097-3.967 31.255 31.255 0 0 0-18.193 0 19.797 19.797 0 0 0-7.058 3.967 17.94 17.94 0 0 0-4.598 6.467 22.08 22.08 0 0 0-1.657 8.774c-.061 3.02.503 6.02 1.657 8.813a18.082 18.082 0 0 0 4.598 6.428 19.838 19.838 0 0 0 7.058 3.962 31.14 31.14 0 0 0 18.193 0 19.836 19.836 0 0 0 7.097-3.962 18.117 18.117 0 0 0 4.595-6.415Zm266.067-1.816c0-4.653 2.819-6.978 8.461-6.975h10.311v13.947h-10.311c-5.642 0-8.461-2.324-8.461-6.972Zm-6.285-9.11c-3.172 2.012-4.757 5.046-4.757 9.102s1.585 7.091 4.757 9.106c3.172 2.012 8.087 3.018 14.746 3.018h20.587V127.58c.026-2.16-.417-4.3-1.298-6.274a13.577 13.577 0 0 0-3.787-4.885 17.672 17.672 0 0 0-6.105-3.156 28.532 28.532 0 0 0-8.305-1.099 26.67 26.67 0 0 0-3.787.293 34.501 34.501 0 0 0-4.081.863 32.5 32.5 0 0 0-4.004 1.353 20.254 20.254 0 0 0-3.568 1.91l2.596 4.402a22.1 22.1 0 0 1 12.114-3.686c2.942 0 5.331.83 7.166 2.492 1.838 1.661 2.758 4.248 2.76 7.76h-10.277c-6.686.027-11.605 1.041-14.757 3.044Zm-227.615 10.189a5.45 5.45 0 0 1-1.838 4.182c-1.225 1.125-2.942 1.694-5.148 1.694H120.39v-11.749h11.401c2.206 0 3.922.564 5.148 1.691a5.48 5.48 0 0 1 1.378 1.889c.317.723.474 1.505.46 2.293Zm-2.206-16.514a5.051 5.051 0 0 1-.493 2.13 5.056 5.056 0 0 1-1.345 1.725c-1.226 1.101-2.942 1.651-5.148 1.651h-9.187V118.75h9.187c2.206 0 3.923.547 5.148 1.655a5.022 5.022 0 0 1 1.838 3.867Zm10.553 10.676c-1.79-1.691-4.448-2.803-7.975-3.337 2.941-.388 5.086-1.251 6.436-2.587a6.47 6.47 0 0 0 2.02-4.773 8.573 8.573 0 0 0-1.064-4.148 9.563 9.563 0 0 0-3.27-3.371 18.389 18.389 0 0 0-5.593-2.277 33.822 33.822 0 0 0-8.084-.862h-19.486v38.183h21.687c2.722.04 5.438-.249 8.089-.863a17.796 17.796 0 0 0 5.588-2.311 9.528 9.528 0 0 0 3.27-3.492 9.167 9.167 0 0 0 1.069-4.363c-.009-2.177-.904-4.109-2.687-5.799Zm31.727 4.371c0 2.402-.614 4.221-1.838 5.476-1.225 1.254-2.942 1.871-5.148 1.871h-9.559v-14.684h9.559c2.206 0 3.922.623 5.148 1.871 1.224 1.246 1.838 3.074 1.838 5.466Zm11.029 0c0-3.869-1.432-6.915-4.299-9.14-2.866-2.225-7.438-3.337-13.716-3.337h-9.559v-13.215h-10.294v38.183h19.853c6.272 0 10.844-1.113 13.716-3.337 2.872-2.225 4.308-5.276 4.308-9.154h-.009Zm5.515 12.504h10.299v-38.2h-10.299v38.2Zm54.733-47.961v-.776h-25.887c-4.758 0-8.629 2.699-8.629 6.036v.776h25.887c4.762-.004 8.629-2.703 8.629-6.036Zm3.343 47.943v-38.182h-13.227l-16.911 28.633h-.736v-28.633h-10.29v38.182h13.231l16.912-28.636h.736v28.636h10.285Z" fill="#000"/></g></g><defs><clipPath id="a"><path fill="#fff" transform="translate(0 .571)" d="M0 0h460v262.857H0z"/></clipPath></defs></svg>