<svg xmlns="http://www.w3.org/2000/svg" width="24" height="24" fill="none"><path d="M12 2C6.477 2 2 6.477 2 12s4.477 10 10 10 10-4.477 10-10S17.523 2 12 2Zm.684 12.37c-.641-.05-.91-.367-1.412-.671-.276 1.449-.614 2.839-1.614 3.565-.309-2.192.452-3.836.807-5.583-.604-1.015.072-3.058 1.344-2.556 1.566.62-1.356 3.776.606 4.17 2.048.411 2.884-3.553 1.614-4.84-1.835-1.862-5.34-.044-4.91 2.621.105.651.779.849.27 1.748-1.174-.26-1.525-1.187-1.48-2.42.072-2.022 1.816-3.437 3.564-3.632 2.211-.246 4.286.811 4.574 2.893.322 2.348-1 4.888-3.363 4.705Z" fill="#fff"/></svg>