<svg width="460" height="263" fill="none" xmlns="http://www.w3.org/2000/svg"><g clip-path="url(#a)"><path d="M460 .143H0V263h460V.143Z" fill="#fff"/><mask id="b" style="mask-type:luminance" maskUnits="userSpaceOnUse" x="23" y="71" width="414" height="121"><path d="M437 71.114H23v120.257h414V71.114Z" fill="#fff"/></mask><g mask="url(#b)" fill="#083F88"><path d="M129.436 76.307c-1.024 2.885-8.325 23.696-16.249 46.284l-14.423 41.047-6.054.132-6.054.134v2.174h28.49V163.859h-6.9c-5.253 0-6.9-.133-6.855-.576 0-.267 2.047-6.346 4.585-13.402l4.54-12.869 14.913-.133 14.913-.089 4.318 13.268c2.359 7.278 4.318 13.402 4.318 13.535 0 .133-2.715.266-6.009.266h-6.01V166.078h38.729v-1.109c0-1.065-.045-1.065-4.496-1.199l-4.496-.132-16.071-46.284-16.026-46.239h-3.338l-1.825 5.192Zm3.517 37.63c3.472 10.739 6.454 19.747 6.543 20.058.178.444-2.626.577-13.844.577-7.746 0-14.067-.133-14.067-.355 0-.311 11.218-32.439 13.444-38.385.623-1.73 1.068-2.396 1.29-1.997.178.31 3.161 9.363 6.634 20.102ZM47.395 72.002c-6.544.798-12.287 3.55-16.56 7.987-5.743 5.902-7.657 13.224-5.832 21.966 1.291 6.213 4.808 11.227 10.996 15.798 3.294 2.44 5.164 3.416 20.833 10.96 8.37 4.038 12.109 6.612 14.38 9.94 2.225 3.373 2.67 5.148 2.447 9.896-.178 3.373-.49 4.659-1.602 7.056-3.116 6.656-9.26 10.029-18.34 10.029-5.476 0-9.483-.888-13.4-2.929-6.322-3.328-10.862-9.275-13.8-18.105-1.336-3.994-1.825-4.97-2.582-5.059-.935-.133-.935-.089-.935 13.845v14.022l1.024-.044c.668 0 2.137-1.331 4.54-3.949l3.517-3.905 2.449 1.997c6.232 5.058 14.69 7.278 24.083 6.301 12.554-1.287 21.412-8.165 24.75-19.259 1.114-3.683 1.114-12.647 0-16.419-1.335-4.526-3.783-8.609-7.166-12.025-4.63-4.66-9.883-7.944-20.255-12.603-10.862-4.926-16.026-8.476-18.608-12.825-1.068-1.819-1.202-2.484-1.202-6.034 0-3.462.178-4.305 1.247-6.524 1.513-3.017 4.451-5.769 7.345-6.79 1.157-.398 3.917-.842 6.099-.975 10.416-.577 18.474 4.17 23.059 13.623 1.113 2.307 2.404 5.768 2.805 7.632.712 3.106.934 3.462 1.825 3.462h1.023V85.314c0-12.869-.044-13.756-.8-13.756-.402 0-2.45 1.686-4.542 3.772l-3.739 3.728-1.736-1.598c-4.54-4.083-13.488-6.346-21.323-5.458ZM296.552 72.046c-12.108 1.287-22.659 8.431-29.158 19.747-5.475 9.497-7.968 22.188-6.722 34.214 2.315 22.498 15.18 38.118 33.877 41.002 4.229.666 13.088.267 16.916-.71 16.204-4.26 27.333-18.637 29.87-38.651.712-5.679.268-16.064-.89-21.034-2.404-10.428-6.588-18.105-13.488-24.672-8.013-7.677-18.652-11.138-30.405-9.896Zm11.263 3.151c6.9 2.573 12.331 11.67 14.512 24.229 2.404 14.156 1.914 35.367-1.113 46.771-3.205 12.16-9.348 18.416-18.563 18.905-8.948.488-14.78-3.018-18.964-11.316-4.852-9.718-6.722-30.575-4.452-49.656 1.336-11.316 4.764-20.369 9.482-25.028 1.38-1.376 3.384-2.929 4.496-3.461 4.14-1.953 9.972-2.13 14.602-.444ZM184.149 74v1.11H195.278v88.75H184.149V166.079h68.555v-28.844h-1.069c-.979 0-1.112.221-1.38 2.529-1.112 10.517-3.027 15.487-7.345 19.392-4.407 3.949-7.79 4.704-21.457 4.704h-10.594V75.109h10.684v-2.218h-37.394V74ZM349.302 73.999v1.11h12.465v88.75h-12.465V166.078h28.936V163.859H363.993V77.638l28.757 44.331c15.848 24.406 28.891 44.597 28.98 44.863.133.311.712.577 1.291.577h1.068v-92.3h12.91v-2.22h-29.381v2.22H421.863l-.044 32.26c0 30.53-.044 32.261-.757 31.241a8949.88 8949.88 0 0 1-21.101-33.282l-20.299-32.216-15.18-.134-15.18-.088v1.109ZM174.353 188.266c0 2.795.09 3.106.891 3.106s.89-.311.89-3.106c0-2.796-.089-3.107-.89-3.107s-.891.311-.891 3.107ZM186.818 188.266c0 2.795.09 3.106.846 3.106.668 0 .935-.355 1.024-1.464l.133-1.42.891 1.464c.579.976 1.158 1.42 1.781 1.331.801-.133.89-.443.89-3.017 0-2.575-.089-2.885-.89-2.885-.623 0-.935.355-1.113 1.243l-.223 1.242-.801-1.331c-.445-.799-1.158-1.376-1.692-1.376-.756 0-.846.311-.846 3.107ZM202.4 185.825c0 .355.401.666.89.666.802 0 .891.31.891 2.44s.089 2.441.89 2.441c.757 0 .89-.311.89-2.263 0-1.864.134-2.308.891-2.485.489-.133.89-.533.89-.843 0-.444-.712-.622-2.671-.622-2.092 0-2.671.134-2.671.666ZM217.981 188.266v3.106h2.449c1.825 0 2.448-.178 2.448-.621 0-.4-.534-.711-1.424-.799-1.692-.178-1.781-.976-.134-1.154 1.647-.222 1.424-1.42-.267-1.42-.756 0-1.247-.178-1.069-.444.134-.266.846-.443 1.603-.443.846 0 1.291-.223 1.291-.666 0-.532-.578-.666-2.448-.666h-2.449v3.107ZM233.116 188.266c0 2.795.09 3.106.891 3.106.667 0 .89-.311.89-1.154 0-1.464 1.469-1.331 1.692.177.089.622.444.977.979.977.712 0 .845-.355.801-2.663-.044-3.106-.489-3.55-3.427-3.55h-1.826v3.107Zm3.473-.977c.089.311-.267.533-.757.533-.935 0-1.202-.488-.623-1.065.4-.4 1.157-.089 1.38.532ZM248.874 185.736c-.134.355-.178 1.731-.089 3.018.133 2.041.268 2.396 1.024 2.396.802 0 .89-.311.89-2.884 0-2.397-.133-2.885-.801-3.018-.401-.089-.89.133-1.024.488ZM261.651 186.313c-.534.666-.935 1.509-.935 1.953 0 1.331 1.736 3.106 3.072 3.106 2.003 0 3.161-1.154 3.161-3.106 0-1.287-.267-1.909-.98-2.396-1.513-1.065-3.249-.888-4.318.443Zm3.25 1.198c.356.533.356.977 0 1.509-.712 1.109-1.692.977-1.87-.222-.311-2.219.801-2.973 1.87-1.287ZM277.186 188.266c0 2.795.089 3.106.891 3.106.667 0 .889-.311.889-1.109 0-1.465 1.648-1.554 1.871-.134.088.666.489 1.065 1.202 1.154.667.133.934 0 .711-.355-.178-.266-.311-1.465-.311-2.707.044-2.53-.579-3.062-3.428-3.062h-1.825v3.107Zm3.472-.977c.089.311-.267.533-.757.533-.935 0-1.201-.488-.622-1.065.4-.4 1.157-.089 1.379.532Z"/></g></g><defs><clipPath id="a"><path fill="#fff" transform="translate(0 .143)" d="M0 0h460v262.857H0z"/></clipPath></defs></svg>