<svg xmlns="http://www.w3.org/2000/svg" width="24" height="24" fill="none"><path d="M11.996 2c-5.523 0-10 4.477-10 10s4.477 10 10 10 10-4.477 10-10-4.477-10-10-10Zm3.846 11.282s.884.873 1.102 1.278l.012.021c.088.15.109.265.065.351-.073.144-.323.215-.408.221H15.05c-.108 0-.335-.028-.61-.218-.212-.148-.42-.39-.623-.627-.303-.352-.566-.656-.83-.656a.316.316 0 0 0-.1.016c-.2.064-.456.35-.456 1.11 0 .238-.187.374-.32.374h-.715c-.244 0-1.513-.085-2.638-1.272C7.38 12.427 6.14 9.512 6.13 9.485c-.078-.188.084-.29.26-.29h1.578c.21 0 .28.129.327.242.056.133.263.659.601 1.25.549.965.886 1.357 1.155 1.357.05 0 .1-.014.145-.038.352-.196.287-1.45.27-1.711 0-.05 0-.562-.18-.807-.13-.179-.35-.246-.483-.271a.573.573 0 0 1 .208-.176c.241-.121.677-.139 1.11-.139h.24c.468.006.59.037.76.08.343.082.35.303.32 1.063-.01.215-.019.46-.019.747 0 .062-.003.129-.003.2-.01.386-.023.825.25 1.005a.225.225 0 0 0 .119.034c.095 0 .38 0 1.153-1.326.238-.427.445-.87.62-1.327.015-.027.061-.11.115-.143.04-.02.085-.03.13-.03h1.855c.202 0 .34.03.366.109.046.123-.008.502-.855 1.649l-.378.498c-.768 1.007-.768 1.058.048 1.821Z" fill="#fff"/></svg>