<svg xmlns="http://www.w3.org/2000/svg" width="24" height="24" fill="none"><path fill-rule="evenodd" clip-rule="evenodd" d="M22 11c0 5.523-4.477 10-10 10S2 16.523 2 11 6.477 1 12 1s10 4.477 10 10Zm-6.303-4.383a5.331 5.331 0 0 0-7.818 7.126c.134.19.159.436.066.65l-.605 1.392 2.143-.381a.667.667 0 0 1 .41.057 5.331 5.331 0 0 0 5.803-8.844Zm-3.57-2.607a6.664 6.664 0 1 1-2.619 12.743l-3.157.563a.667.667 0 0 1-.728-.922l.956-2.2A6.664 6.664 0 0 1 12.127 4.01Zm-1.56 3.654a1 1 0 0 0-.999 1v.666a3.998 3.998 0 0 0 3.998 3.998h.667a1 1 0 0 0 0-2h-.667a1 1 0 0 0-.876.52 2.665 2.665 0 0 1-1.641-1.642 1 1 0 0 0 .518-.876v-.667a1 1 0 0 0-1-1Z" fill="#fff"/></svg>